<?xml version="1.0" encoding="UTF-8" standalone="no"?>
<!-- Created with Inkscape (http://www.inkscape.org/) -->

<svg
   xmlns:dc="http://purl.org/dc/elements/1.1/"
   xmlns:cc="http://creativecommons.org/ns#"
   xmlns:rdf="http://www.w3.org/1999/02/22-rdf-syntax-ns#"
   xmlns:svg="http://www.w3.org/2000/svg"
   xmlns="http://www.w3.org/2000/svg"
   xmlns:sodipodi="http://sodipodi.sourceforge.net/DTD/sodipodi-0.dtd"
   xmlns:inkscape="http://www.inkscape.org/namespaces/inkscape"
   version="1.1"
   id="svg815"
   xml:space="preserve"
   width="138"
   height="94"
   viewBox="0 0 138 93.999998"
   sodipodi:docname="logo.svg"
   inkscape:version="0.92.3 (2405546, 2018-03-11)"><metadata
     id="metadata821"><rdf:RDF><cc:Work
         rdf:about=""><dc:format>image/svg+xml</dc:format><dc:type
           rdf:resource="http://purl.org/dc/dcmitype/StillImage" /><dc:title></dc:title></cc:Work></rdf:RDF></metadata><defs
     id="defs819"><clipPath
       clipPathUnits="userSpaceOnUse"
       id="clipPath831"><path
         d="M 0,2000 H 2000 V 0 H 0 Z"
         id="path829"
         inkscape:connector-curvature="0" /></clipPath></defs><sodipodi:namedview
     pagecolor="#ffffff"
     bordercolor="#666666"
     borderopacity="1"
     objecttolerance="10"
     gridtolerance="10"
     guidetolerance="10"
     inkscape:pageopacity="0"
     inkscape:pageshadow="2"
     inkscape:window-width="1918"
     inkscape:window-height="1059"
     id="namedview817"
     showgrid="false"
     inkscape:measure-start="837.812,25.4374"
     inkscape:measure-end="976.365,23.8138"
     inkscape:zoom="1.3065"
     inkscape:cx="158.14493"
     inkscape:cy="47.183912"
     inkscape:window-x="1920"
     inkscape:window-y="19"
     inkscape:window-maximized="0"
     inkscape:current-layer="g823" /><g
     id="g823"
     inkscape:groupmode="layer"
     inkscape:label="Roisin Beauty_KP_2"
     transform="matrix(1.3333333,0,0,-1.3333333,0,93.999952)"><g
       id="g825"
       transform="matrix(0.13719181,0,0,0.13719181,-85.441857,-101.94186)"><g
         id="g827"
         clip-path="url(#clipPath831)"><g
           id="g833"
           transform="translate(986.9154,960.0125)"><path
             d="m 0,0 c -28.296,14.757 -47.195,37.729 -56.627,68.856 -0.708,2.347 -1.226,4.781 -1.571,7.214 -0.604,4.332 1.053,6.645 5.316,7.456 6.722,1.277 13.479,2.416 20.21,3.667 5.066,0.941 10.028,2.253 14.558,4.816 1.071,0.604 2.114,1.268 3.09,2.019 4.15,3.21 5.1,7.241 2.899,12.013 -1.493,3.235 -3.029,6.446 -4.427,9.717 -1.027,2.39 -0.733,4.685 1.571,6.179 3.21,2.062 2.632,7.153 -1.838,8.948 -2.693,1.079 -2.805,1.511 -1.035,3.884 0.612,0.811 1.268,1.648 1.63,2.58 1.01,2.554 0.536,3.659 -1.89,4.962 -5.911,3.193 -6.29,7.231 -0.854,11.261 3.417,2.537 5.531,5.583 5.531,9.967 0,1.7 -0.604,2.926 -2.07,3.702 -1.398,0.735 -2.805,1.442 -4.238,2.089 -7.421,3.357 -13.738,8.224 -19.183,14.213 -3.478,3.832 -4.927,8.414 -4.47,13.643 0.112,1.269 -0.259,2.736 -0.846,3.892 -3.624,7.206 -7.404,14.334 -11.08,21.522 -3.305,6.455 -6.231,13.16 -11.633,18.26 -1.588,1.494 -4.022,2.382 -4.997,4.143 -0.923,1.666 -0.241,4.142 -0.621,6.196 -1.165,6.343 -4.539,11.253 -10.174,14.454 -5.808,3.297 -11.823,5.032 -17.984,4.522 31.912,-31.601 36.382,-92.655 -0.492,-164.367 -20.314,-39.49 4.203,-80.722 30.368,-109.821 -231.757,20.962 -144.598,394.105 66.214,274.689 212.849,-120.581 230.686,10.459 230.686,10.459 C 266.335,213.427 162.59,32.171 0,0"
             style="fill:#281a11;fill-opacity:1;fill-rule:nonzero;stroke:none"
             id="path835"
             inkscape:connector-curvature="0" /></g><g
           id="g837"
           transform="translate(804.5795,807.8904)"><path
             d="m 0,0 c -0.655,0 -1.373,-0.281 -2.255,-0.883 -0.963,-0.656 -1.282,-0.976 -1.484,-1.281 l -0.093,-0.159 c -1.077,-2.155 -2.383,-3.969 -3.881,-5.393 -1.513,-1.433 -3.199,-2.601 -5.011,-3.471 -1.84,-0.879 -3.837,-1.523 -5.933,-1.911 -2.143,-0.396 -4.355,-0.597 -6.575,-0.597 -4.069,0 -8.353,0.517 -12.732,1.538 -4.403,1.026 -8.885,2.507 -13.322,4.4 -4.457,1.903 -8.917,4.203 -13.257,6.833 -4.352,2.639 -8.585,5.59 -12.584,8.773 -3.991,3.175 -7.795,6.635 -11.308,10.283 -2.956,3.07 -5.661,6.253 -8.062,9.485 3.955,0.99 7.939,2.116 11.873,3.358 4.677,1.474 9.312,3.241 13.777,5.25 4.475,2.014 8.831,4.398 12.945,7.084 4.133,2.699 8.026,5.864 11.592,9.43 1.29,1.347 2.603,2.845 3.902,4.454 1.306,1.619 2.504,3.321 3.56,5.062 1.071,1.766 1.952,3.602 2.619,5.458 0.692,1.927 1.043,3.857 1.043,5.736 0,4.416 -0.971,8.202 -2.886,11.256 -1.879,2.992 -4.318,5.49 -7.25,7.426 -2.875,1.897 -6.152,3.398 -9.738,4.461 -3.489,1.032 -6.991,1.868 -10.451,2.493 -1.832,0.277 -3.69,0.53 -5.523,0.753 -0.95,0.114 -1.901,0.223 -2.846,0.322 l 1.582,2.102 c 0.438,0.581 0.87,1.222 1.287,1.906 0.417,0.686 0.794,1.395 1.12,2.106 0.393,0.861 0.592,1.685 0.592,2.45 0,1.099 -0.494,1.776 -0.914,2.155 -0.429,0.384 -0.954,0.683 -1.566,0.887 -0.538,0.178 -1.13,0.287 -1.76,0.323 -0.529,0.028 -1,0.044 -1.41,0.044 h -0.747 c -0.439,0 -0.93,-0.031 -1.463,-0.094 -0.557,-0.065 -1.065,-0.168 -1.511,-0.305 -1.482,-0.458 -1.597,-1.594 -1.597,-1.931 0,-0.365 0.103,-0.862 0.536,-1.34 -0.548,-1.42 -1.234,-2.775 -2.041,-4.033 -0.777,-1.21 -1.602,-2.406 -2.459,-3.563 l -7.524,0.226 c -9.68,0.279 -19.149,-0.342 -28.137,-1.846 -9.006,-1.506 -17.678,-3.996 -25.765,-7.397 -3.262,-1.35 -6.514,-3.004 -9.667,-4.918 -3.194,-1.94 -6.099,-4.238 -8.636,-6.832 -2.571,-2.629 -4.665,-5.675 -6.224,-9.052 -1.579,-3.42 -2.379,-7.331 -2.379,-11.626 0,-3.612 0.702,-6.755 2.086,-9.339 1.371,-2.564 3.191,-4.701 5.408,-6.348 2.188,-1.628 4.7,-2.84 7.467,-3.603 5.297,-1.468 10.843,-1.432 16.186,-0.315 2.617,0.547 5.142,1.379 7.429,2.442 0.336,0.134 1.359,0.542 1.359,1.641 0,0.69 -0.41,1.196 -0.856,1.644 -0.56,0.558 -1.27,0.852 -2.055,0.852 -0.478,0 -0.939,-0.014 -1.389,-0.044 -0.662,-0.045 -1.042,-0.123 -1.282,-0.246 -1.651,-0.715 -3.395,-1.434 -5.184,-2.137 -1.638,-0.647 -3.352,-0.975 -5.093,-0.975 -2.865,0 -5.317,0.469 -7.291,1.394 -1.968,0.922 -3.59,2.163 -4.822,3.692 -1.254,1.555 -2.198,3.354 -2.803,5.346 -0.618,2.033 -0.931,4.163 -0.931,6.328 0,3.579 0.692,6.869 2.058,9.779 1.388,2.961 3.234,5.646 5.488,7.978 2.278,2.357 4.927,4.454 7.872,6.232 2.985,1.802 6.055,3.344 9.117,4.58 3.953,1.571 7.981,2.876 11.972,3.881 3.991,1.005 8.041,1.79 12.036,2.334 4.01,0.545 8.057,0.918 12.03,1.109 3.996,0.192 8.021,0.289 11.926,0.289 l 3.919,-0.097 c -0.813,-1.125 -1.609,-2.251 -2.376,-3.36 -1.012,-1.461 -1.997,-2.924 -2.906,-4.316 -3.1,-4.482 -6.213,-8.994 -9.338,-13.531 -3.119,-4.526 -6.226,-9.157 -9.235,-13.768 -2.993,-4.585 -5.949,-9.305 -8.786,-14.034 -2.827,-4.712 -5.551,-9.568 -8.09,-14.428 -1.005,-1.898 -2.064,-4.045 -3.148,-6.379 -1.095,-2.358 -2.1,-4.737 -2.988,-7.069 -0.898,-2.357 -1.654,-4.668 -2.246,-6.868 -0.613,-2.273 -0.923,-4.304 -0.923,-6.033 0,-0.668 0.046,-1.373 0.136,-2.096 0.106,-0.851 0.36,-1.645 0.755,-2.363 0.417,-0.758 0.994,-1.392 1.713,-1.884 0.777,-0.531 1.746,-0.801 2.88,-0.801 0.583,0 1.078,0.058 1.516,0.177 1.151,0.314 1.561,1.147 1.561,1.821 0,0.185 -0.029,0.361 -0.083,0.524 v 0.263 l -0.44,0.44 c -0.754,0.755 -1.137,1.962 -1.137,3.587 0,1.243 0.192,2.576 0.57,3.963 0.397,1.457 0.88,2.894 1.438,4.273 0.564,1.398 1.138,2.71 1.705,3.899 0.576,1.206 1.028,2.14 1.373,2.83 2.736,5.799 5.759,11.541 8.986,17.063 3.23,5.531 6.665,11.08 10.209,16.493 3.553,5.426 7.255,10.825 11.003,16.05 3.752,5.23 7.588,10.518 11.405,15.718 1.054,1.443 1.929,2.65 2.624,3.623 0.688,0.963 1.292,1.803 1.817,2.518 0.518,0.709 0.996,1.353 1.434,1.928 0.294,0.386 0.601,0.79 0.919,1.212 1.088,-0.092 2.158,-0.192 3.21,-0.302 1.283,-0.134 2.624,-0.311 3.985,-0.529 3.01,-0.483 6.094,-1.22 9.165,-2.189 3.001,-0.948 5.76,-2.267 8.202,-3.921 2.388,-1.618 4.369,-3.636 5.885,-5.999 1.468,-2.289 2.212,-5.118 2.212,-8.405 0,-2.835 -0.681,-5.559 -2.025,-8.095 -1.412,-2.664 -3.047,-5.152 -4.855,-7.386 -2.955,-3.6 -6.331,-6.84 -10.036,-9.631 -3.731,-2.813 -7.752,-5.352 -11.951,-7.547 -4.214,-2.202 -8.618,-4.129 -13.091,-5.726 -4.158,-1.488 -8.352,-2.815 -12.482,-3.952 -0.493,0.773 -0.965,1.533 -1.417,2.279 -0.622,1.027 -1.24,2.098 -1.836,3.182 l -0.228,0.415 -0.425,0.209 c -0.715,0.351 -1.872,0.361 -3.268,-0.268 -0.615,-0.277 -1.222,-0.604 -1.803,-0.972 -0.584,-0.367 -1.12,-0.762 -1.595,-1.173 -0.613,-0.532 -0.994,-1.018 -1.198,-1.531 l -0.271,-0.68 0.368,-0.632 c 2.579,-4.429 5.791,-8.85 9.546,-13.139 3.736,-4.266 7.894,-8.353 12.358,-12.148 4.453,-3.786 9.256,-7.331 14.274,-10.539 5.025,-3.208 10.199,-6.021 15.38,-8.36 5.198,-2.348 10.477,-4.206 15.688,-5.523 5.245,-1.326 10.339,-1.998 15.141,-1.998 2.646,0 5.496,0.348 8.471,1.035 2.977,0.687 5.893,1.732 8.67,3.105 2.798,1.385 5.374,3.156 7.657,5.265 2.322,2.147 4.155,4.667 5.45,7.49 l 0.136,0.298 v 0.327 C 1.749,-0.752 0.997,0 0,0"
             style="fill:#281a11;fill-opacity:1;fill-rule:nonzero;stroke:none"
             id="path839"
             inkscape:connector-curvature="0" /></g><g
           id="g841"
           transform="translate(797.7684,857.2313)"><path
             d="m 0,0 c 0.488,-0.554 1.403,-1.213 2.993,-1.213 0.686,0 1.41,0.197 2.151,0.588 C 5.8,-0.279 6.411,0.173 6.958,0.721 7.481,1.244 7.932,1.812 8.298,2.41 8.747,3.146 8.975,3.91 8.972,4.776 8.811,7.413 7.176,8.925 4.487,8.925 2.955,8.925 1.609,8.318 0.487,7.122 -0.608,5.954 -1.164,4.604 -1.164,3.109 L -1.153,2.935 C -1.007,1.688 -0.619,0.7 0,0"
             style="fill:#281a11;fill-opacity:1;fill-rule:nonzero;stroke:none"
             id="path843"
             inkscape:connector-curvature="0" /></g><g
           id="g845"
           transform="translate(764.265,838.3748)"><path
             d="M 0,0 C 0.07,0.398 0.164,0.773 0.279,1.116 0.29,1.148 0.3,1.181 0.312,1.212 0.424,1.025 0.531,0.815 0.63,0.583 0.838,0.099 1.003,-0.434 1.122,-0.997 1.238,-1.563 1.298,-2.076 1.298,-2.52 c 0,-0.181 -0.019,-0.492 -0.096,-0.998 -0.225,0.2 -0.43,0.41 -0.614,0.631 -0.464,0.556 -0.69,1.246 -0.69,2.111 0,0.033 0.005,0.227 0.102,0.776 m -6.32,-12.265 c -0.728,-0.249 -1.375,-0.375 -1.921,-0.375 -0.575,0 -0.859,0.171 -1.022,0.3 -0.354,0.279 -0.626,0.615 -0.833,1.03 -0.242,0.484 -0.421,1.023 -0.532,1.605 -0.12,0.619 -0.181,1.193 -0.181,1.707 0,1.517 0.437,2.858 1.335,4.102 0.461,0.638 0.96,1.215 1.495,1.73 0.151,-0.493 0.341,-0.956 0.57,-1.387 0.584,-1.104 1.344,-2.061 2.258,-2.844 0.869,-0.746 1.829,-1.375 2.853,-1.872 0.354,-0.171 0.712,-0.332 1.072,-0.482 -0.184,-0.211 -0.38,-0.416 -0.586,-0.615 -0.704,-0.678 -1.451,-1.274 -2.221,-1.77 -0.756,-0.487 -1.526,-0.867 -2.287,-1.129 m 66.776,5.737 c 0.685,-0.328 1.442,-0.605 2.285,-0.81 1.298,-0.317 2.699,-0.566 4.165,-0.738 1.368,-0.161 2.669,-0.364 3.865,-0.604 1.085,-0.217 1.974,-0.513 2.639,-0.88 0.278,-0.154 0.429,-0.321 0.436,-0.712 -0.001,-0.002 -0.083,-0.219 -0.634,-0.592 -0.747,-0.506 -1.705,-0.964 -2.847,-1.361 -1.206,-0.419 -2.513,-0.779 -3.884,-1.069 -1.336,-0.282 -2.544,-0.425 -3.591,-0.425 -1.714,0 -3.191,0.198 -4.39,0.59 -1.153,0.377 -2.162,0.944 -2.997,1.688 l -0.166,0.128 c -0.2,0.132 -0.435,0.236 -0.724,0.317 1.09,0.724 2.154,1.478 3.177,2.267 0.94,0.728 1.823,1.462 2.666,2.201 m 21.061,1.093 c -2.458,0.937 -5.9,1.616 -10.521,2.077 l -1.589,0.317 c -0.419,0.084 -0.794,0.208 -1.118,0.37 -0.208,0.104 -0.367,0.244 -0.501,0.445 -0.104,0.157 -0.162,0.435 -0.162,0.786 0,0.878 0.29,1.526 0.91,2.04 0.852,0.706 1.804,1.287 2.829,1.726 1.061,0.455 2.037,0.774 2.899,0.946 1.246,0.249 2.658,0.532 2.658,1.927 0,1.52 -1.687,1.801 -2.501,1.938 -0.927,0.152 -1.658,0.226 -2.235,0.226 -1.44,0 -3.026,-0.21 -4.716,-0.624 C 65.783,6.324 64.204,5.737 62.776,4.994 61.297,4.223 60.041,3.277 59.043,2.186 57.901,0.937 57.322,-0.479 57.322,-2.021 c 0,-0.281 0.027,-0.548 0.066,-0.809 -1.973,-1.609 -4.036,-3.099 -6.168,-4.437 -2.923,-1.833 -6.103,-3.301 -9.428,-4.357 -1.104,-0.331 -2.254,-0.646 -3.418,-0.936 -1.798,-0.447 -3.71,-0.581 -5.222,-0.172 -0.523,0.14 -0.98,0.374 -1.399,0.712 -0.386,0.313 -0.689,0.744 -0.926,1.318 -0.255,0.615 -0.384,1.441 -0.384,2.455 0,1.049 0.196,2.157 0.584,3.294 0.416,1.221 0.944,2.448 1.57,3.648 0.643,1.233 1.345,2.433 2.085,3.57 0.768,1.179 1.508,2.29 2.222,3.333 l 0.555,0.81 -0.522,0.833 C 36.442,8.03 35.625,8.562 34.509,8.819 32.816,9.209 30.638,9.203 28.706,8.781 L 28.705,8.78 C 27.638,8.547 26.832,8.253 26.239,7.882 L 25.914,7.679 25.727,7.346 C 25.207,6.422 24.67,5.349 24.132,4.158 23.592,2.966 23.087,1.711 22.633,0.432 22.187,-0.821 21.807,-2.133 21.498,-3.464 20.344,-4.146 19.147,-4.702 17.914,-5.126 15.427,-5.981 12.77,-6.415 10.019,-6.415 c -0.768,0 -1.573,0.099 -2.397,0.292 -0.419,0.099 -0.842,0.204 -1.266,0.315 0.287,1.124 0.432,2.282 0.432,3.454 0,2.438 -0.811,4.518 -2.411,6.185 C 2.762,5.514 0.778,6.367 -1.519,6.367 -2.345,6.367 -3.074,6.223 -3.69,5.936 -3.899,5.838 -4.111,5.726 -4.324,5.601 -4.789,5.779 -5.349,5.869 -6,5.869 c -1.872,0 -3.704,-0.41 -5.446,-1.219 -1.703,-0.791 -3.216,-1.84 -4.496,-3.121 -1.279,-1.278 -2.314,-2.746 -3.077,-4.362 -0.783,-1.66 -1.18,-3.37 -1.18,-5.082 0,-1.763 0.378,-3.292 1.123,-4.542 0.723,-1.218 1.676,-2.22 2.831,-2.978 1.102,-0.723 2.344,-1.265 3.69,-1.61 1.309,-0.334 2.648,-0.504 3.982,-0.504 2.87,0 5.536,0.745 7.924,2.215 2.077,1.278 3.8,2.995 5.134,5.113 0.66,-0.094 1.331,-0.17 2.006,-0.226 1.029,-0.085 2.216,-0.129 3.528,-0.129 3.293,0 6.598,0.512 9.826,1.52 0.399,0.125 0.791,0.263 1.177,0.411 0.12,-1.727 0.564,-3.212 1.37,-4.39 0.905,-1.326 2.086,-2.393 3.508,-3.168 1.355,-0.739 2.851,-1.255 4.447,-1.53 1.517,-0.264 2.972,-0.397 4.323,-0.397 2.633,0 5.355,0.443 8.092,1.317 1.985,0.633 3.946,1.424 5.856,2.355 0.686,-0.638 1.507,-1.191 2.451,-1.652 1.174,-0.572 2.48,-1.028 3.885,-1.358 1.361,-0.317 2.839,-0.553 4.395,-0.697 1.543,-0.142 3.097,-0.214 4.619,-0.214 2.368,0 4.675,0.129 6.856,0.384 2.202,0.258 4.03,0.596 5.351,0.982 0.798,0.185 1.697,0.479 2.752,0.9 1.023,0.41 2.026,0.883 2.982,1.404 1.026,0.559 1.915,1.196 2.644,1.894 0.94,0.9 1.416,1.907 1.416,2.992 0,2.692 -3.35,3.969 -4.452,4.388"
             style="fill:#281a11;fill-opacity:1;fill-rule:nonzero;stroke:none"
             id="path847"
             inkscape:connector-curvature="0" /></g><g
           id="g849"
           transform="translate(868.8988,857.2313)"><path
             d="m 0,0 c 0.488,-0.554 1.403,-1.213 2.993,-1.213 0.686,0 1.41,0.197 2.151,0.588 C 5.8,-0.279 6.411,0.173 6.958,0.721 7.481,1.244 7.932,1.812 8.298,2.41 8.747,3.146 8.975,3.91 8.972,4.776 8.811,7.413 7.176,8.925 4.487,8.925 2.955,8.925 1.609,8.318 0.487,7.122 -0.608,5.954 -1.164,4.604 -1.164,3.109 L -1.153,2.935 C -1.007,1.688 -0.619,0.7 0,0"
             style="fill:#281a11;fill-opacity:1;fill-rule:nonzero;stroke:none"
             id="path851"
             inkscape:connector-curvature="0" /></g><g
           id="g853"
           transform="translate(894.5712,823.8192)"><path
             d="m 0,0 c 1.1,-0.167 2.419,-0.1 3.606,0.554 0.674,0.37 1.29,0.833 1.832,1.375 0.483,0.482 0.943,1.004 1.369,1.551 0.371,0.478 0.717,0.902 1.049,1.291 1.602,1.933 3.188,3.898 4.715,5.84 1.003,1.278 2.074,2.531 3.188,3.734 L 15.18,10.65 C 14.954,9.212 14.769,7.759 14.629,6.331 14.487,4.882 14.415,3.533 14.415,2.325 c 0,-3.636 0.857,-6.42 2.549,-8.273 1.727,-1.895 3.888,-2.855 6.421,-2.855 1.677,0 3.496,0.385 5.409,1.143 1.821,0.723 3.68,1.689 5.526,2.871 1.806,1.158 3.636,2.473 5.437,3.908 1.784,1.42 3.509,2.877 5.13,4.33 1.612,1.446 3.126,2.874 4.5,4.248 l 3.884,3.884 v 0.621 c 0,1.002 -0.704,2.081 -2.248,2.081 -0.377,0 -0.731,-0.054 -1.057,-0.161 -0.243,-0.081 -0.446,-0.165 -0.607,-0.245 l -0.199,-0.1 -0.162,-0.153 C 48.008,12.688 46.894,11.657 45.655,10.53 44.41,9.396 43.081,8.218 41.702,7.03 40.313,5.831 38.847,4.614 37.346,3.413 35.874,2.235 34.366,1.148 32.869,0.186 31.507,-0.686 29.988,-1.61 28.356,-2.563 c -1.407,-0.82 -2.733,-1.24 -3.965,-1.24 h -0.035 c -0.16,0.204 -0.29,0.524 -0.377,0.928 -0.119,0.547 -0.192,1.156 -0.216,1.813 -0.028,0.727 -0.04,1.413 -0.04,2.059 0,2.351 0.29,4.637 0.863,6.796 0.595,2.245 1.234,4.568 1.905,6.919 0.154,0.561 0.391,1.271 0.705,2.108 0.394,1.05 0.594,2.066 0.594,3.018 0,1.07 -0.329,1.942 -0.982,2.599 -0.526,0.524 -1.155,0.91 -1.87,1.148 -0.649,0.217 -1.353,0.326 -2.093,0.326 h -2.323 l -0.123,-0.123 c -1.667,-0.229 -3.253,-0.903 -4.72,-2.003 -1.237,-0.928 -2.438,-2.001 -3.578,-3.196 0.126,0.266 0.249,0.534 0.369,0.803 l 0.327,0.73 -0.425,0.679 C 11.876,21.59 11.06,22.121 9.943,22.379 8.252,22.769 6.082,22.764 4.137,22.341 3.072,22.105 2.266,21.812 1.674,21.442 L 1.131,21.104 1,20.478 c -0.258,-1.238 -0.636,-2.46 -1.121,-3.636 -0.521,-1.261 -1.068,-2.534 -1.644,-3.821 -0.283,-0.634 -0.546,-1.27 -0.793,-1.904 -1.74,-1.373 -3.54,-2.662 -5.398,-3.828 -2.923,-1.833 -6.103,-3.302 -9.427,-4.357 -1.105,-0.331 -2.255,-0.646 -3.419,-0.936 -1.8,-0.447 -3.71,-0.581 -5.222,-0.173 -0.522,0.141 -0.979,0.374 -1.398,0.713 -0.387,0.313 -0.69,0.743 -0.927,1.318 -0.255,0.615 -0.384,1.441 -0.384,2.455 0,1.048 0.196,2.157 0.584,3.294 0.416,1.22 0.944,2.448 1.57,3.648 0.643,1.232 1.345,2.433 2.085,3.569 0.768,1.18 1.509,2.29 2.222,3.333 l 0.555,0.811 -0.522,0.833 c -0.495,0.789 -1.311,1.32 -2.428,1.578 -1.693,0.39 -3.871,0.384 -5.803,-0.038 l -0.001,-0.001 c -1.067,-0.233 -1.873,-0.527 -2.466,-0.899 l -0.325,-0.203 -0.187,-0.333 c -0.52,-0.923 -1.056,-1.997 -1.594,-3.187 -0.541,-1.193 -1.045,-2.447 -1.5,-3.727 -0.461,-1.295 -0.854,-2.65 -1.169,-4.027 -0.329,-1.429 -0.495,-2.826 -0.495,-4.153 0,-2.127 0.479,-3.907 1.423,-5.286 0.905,-1.327 2.086,-2.393 3.509,-3.168 1.354,-0.74 2.85,-1.255 4.446,-1.531 1.517,-0.263 2.972,-0.396 4.323,-0.396 2.633,0 5.355,0.442 8.092,1.316 2.686,0.858 5.331,1.999 7.862,3.394 1.579,0.869 3.108,1.821 4.585,2.83 0.208,-1.797 1.165,-3.054 2.749,-3.654"
             style="fill:#281a11;fill-opacity:1;fill-rule:nonzero;stroke:none"
             id="path855"
             inkscape:connector-curvature="0" /></g><g
           id="g857"
           transform="translate(1116.2435,895.3289)"><path
             d="m 0,0 c 0.71,-1.57 1.07,-3.065 1.07,-4.444 0,-1.821 -0.516,-3.493 -1.58,-5.112 -1.124,-1.713 -2.584,-3.301 -4.338,-4.72 -1.804,-1.461 -3.812,-2.808 -5.968,-4.004 -2.188,-1.216 -4.335,-2.283 -6.385,-3.173 -2.069,-0.898 -3.933,-1.639 -5.54,-2.201 -1.341,-0.47 -2.354,-0.822 -3.04,-1.054 -0.38,0.088 -0.981,0.206 -1.994,0.371 -1.207,0.196 -2.69,0.408 -4.408,0.631 -1.739,0.223 -3.683,0.434 -5.779,0.628 -1.39,0.127 -2.803,0.249 -4.239,0.365 2.028,3.92 4.048,7.83 6.057,11.731 2.353,4.564 4.614,9.296 6.725,14.074 0.546,1.258 1.279,2.862 2.181,4.772 0.764,1.625 1.452,3.342 2.049,5.119 4.043,-0.606 7.982,-1.544 11.722,-2.79 4.01,-1.337 7.473,-3.31 10.292,-5.865 C -1.782,3.032 -0.714,1.576 0,0 m -54.429,-26.777 -1.862,-3.723 c -0.398,0.08 -0.81,0.175 -1.23,0.284 -0.766,0.196 -1.475,0.445 -2.111,0.739 -0.571,0.264 -1.036,0.563 -1.386,0.893 -0.193,0.182 -0.232,0.32 -0.232,0.484 l -0.002,0.074 c -0.008,0.171 -0.023,0.49 1.081,0.748 1.434,0.332 3.33,0.501 5.638,0.501 z m 17.446,-1.314 c -0.929,-0.261 -1.849,-0.514 -2.755,-0.761 -2.123,-0.578 -4.27,-1.038 -6.412,-1.372 l 1.529,2.944 c 2.654,-0.254 5.219,-0.527 7.638,-0.811 m -88.903,-0.83 c -0.251,0.852 -0.429,1.73 -0.53,2.611 -0.103,0.901 -0.156,1.807 -0.156,2.692 0,3.588 0.882,6.923 2.619,9.913 1.788,3.076 4.126,5.881 6.95,8.336 2.86,2.487 6.063,4.684 9.518,6.532 3.491,1.867 6.91,3.447 10.145,4.688 4.576,1.688 9.22,3.08 13.802,4.137 4.607,1.063 9.266,1.906 13.844,2.506 4.586,0.601 9.235,1.016 13.82,1.235 4.637,0.218 9.249,0.33 13.708,0.33 1.881,0 3.865,-0.049 5.92,-0.146 -0.482,-1.55 -1.036,-3.052 -1.654,-4.483 -0.891,-2.061 -1.595,-3.752 -2.084,-5.003 -1.922,-4.666 -3.979,-9.335 -6.114,-13.878 -2.005,-4.267 -4.067,-8.579 -6.136,-12.833 -2.063,-0.001 -4.034,-0.071 -5.86,-0.212 -1.875,-0.145 -3.548,-0.395 -4.971,-0.743 -1.544,-0.378 -2.749,-0.869 -3.682,-1.503 -1.504,-1.022 -1.819,-2.344 -1.819,-3.275 l 0.022,-0.426 c 0.225,-1.272 0.814,-2.353 1.747,-3.206 0.819,-0.757 1.838,-1.385 3.026,-1.866 1.12,-0.454 2.366,-0.804 3.704,-1.042 0.576,-0.102 1.152,-0.188 1.725,-0.257 -1.318,-2.831 -2.681,-5.695 -4.055,-8.524 -1.35,-2.774 -2.634,-5.644 -3.825,-8.545 -8.961,-1.211 -18.353,-1.19 -27.904,0.404 -5.003,0.834 -9.728,2.222 -14.043,4.126 -4.274,1.884 -8.054,4.372 -11.233,7.393 -3.104,2.949 -5.283,6.653 -6.484,11.039 m 78.974,-44.955 c -2.432,0.249 -4.888,0.512 -7.326,0.78 -1.924,0.277 -3.766,0.568 -5.474,0.866 -1.243,0.217 -2.487,0.472 -3.715,0.76 0.035,0.173 0.073,0.345 0.111,0.517 0.125,0.581 0.291,1.183 0.521,1.881 0.212,0.797 0.452,1.585 0.715,2.343 0.275,0.797 0.549,1.581 0.83,2.368 0.606,1.761 1.225,3.509 1.858,5.244 0.535,1.462 1.106,2.935 1.704,4.389 0.833,0.171 1.632,0.342 2.399,0.512 1.015,0.226 2.058,0.479 3.13,0.762 l 0.208,0.055 0.184,0.111 c 0.371,0.223 1.14,0.686 1.14,1.616 0,0.366 -0.139,1.58 -1.927,1.819 -0.802,0.106 -1.661,0.132 -2.446,0.044 -0.155,-0.017 -0.263,-0.029 -0.281,-0.031 l -0.369,-0.046 c 0.924,2.175 1.905,4.349 2.927,6.491 1.327,2.78 2.707,5.588 4.112,8.359 3.997,0.213 8.048,0.797 12.058,1.741 4.102,0.965 8.056,2.021 11.761,3.139 2.546,-0.683 5.121,-1.559 7.657,-2.608 2.605,-1.079 4.962,-2.424 7.005,-3.994 2.001,-1.539 3.651,-3.357 4.905,-5.405 1.204,-1.964 1.813,-4.27 1.813,-6.853 0,-3.638 -1.187,-7.095 -3.526,-10.275 -2.423,-3.292 -5.668,-6.252 -9.655,-8.804 -3.646,-2.379 -7.417,-4.011 -11.209,-4.854 -6.198,-1.376 -12.799,-1.572 -19.11,-0.927 m 51.003,33.294 c -1.586,2.525 -3.695,4.783 -6.266,6.711 -2.525,1.892 -5.428,3.519 -8.629,4.835 -1.638,0.673 -3.298,1.281 -4.964,1.821 2.066,0.774 4.143,1.629 6.213,2.561 3.635,1.634 6.979,3.478 9.936,5.479 3.013,2.037 5.526,4.304 7.472,6.74 2.061,2.587 3.106,5.387 3.106,8.323 0,3.022 -0.893,5.777 -2.654,8.188 -1.674,2.292 -3.861,4.318 -6.498,6.02 -2.58,1.662 -5.493,3.068 -8.658,4.179 -3.13,1.1 -6.264,1.945 -9.323,2.511 -1.555,0.277 -3.106,0.531 -4.61,0.755 -0.99,0.146 -1.992,0.292 -3.007,0.438 0.245,1.488 0.347,2.931 0.304,4.308 -0.067,2.126 -0.8,3.905 -2.18,5.287 l -0.173,0.173 -0.218,0.109 c -0.488,0.245 -1.202,0.429 -2.314,0.598 -0.97,0.146 -1.994,0.235 -3.046,0.265 -1.113,0.036 -2.119,-0.05 -2.982,-0.242 -2.129,-0.474 -2.295,-2.003 -2.295,-2.46 v -0.621 l 0.439,-0.44 c 0.698,-0.698 1.101,-1.613 1.23,-2.795 0.107,-0.987 0.097,-2.033 -0.03,-3.123 -2.386,0.118 -4.772,0.178 -7.11,0.178 -10.802,0 -21.439,-0.702 -31.618,-2.088 -10.221,-1.393 -20.258,-3.935 -29.845,-7.558 -3.475,-1.344 -7.1,-3.063 -10.772,-5.11 -3.709,-2.067 -7.123,-4.492 -10.149,-7.207 -3.066,-2.751 -5.611,-5.878 -7.563,-9.295 -2.004,-3.507 -3.02,-7.373 -3.02,-11.493 0,-2.417 0.388,-4.835 1.153,-7.186 0.758,-2.337 1.867,-4.598 3.293,-6.721 1.416,-2.112 3.159,-4.105 5.181,-5.923 2.013,-1.814 4.316,-3.432 6.833,-4.804 5.693,-3.158 11.91,-5.445 18.478,-6.798 10.423,-2.147 21.452,-2.553 32.212,-1.332 -0.892,-2.342 -1.68,-4.687 -2.355,-7.006 -0.281,-1.01 -0.576,-2.146 -0.883,-3.407 -0.187,-0.765 -0.36,-1.568 -0.516,-2.402 -2.142,0.738 -4.336,1.569 -6.545,2.478 -2.813,1.159 -5.861,2.517 -9.057,4.035 l -0.313,0.141 -0.329,0.004 c -0.061,0.001 -0.14,0.012 -0.248,0.027 -0.543,0.076 -1.399,0.08 -2.14,-0.051 -1.244,-0.228 -1.686,-1.117 -1.686,-1.808 0,-0.478 0.208,-0.923 0.619,-1.323 l 0.151,-0.147 0.183,-0.099 c 3.504,-1.892 6.923,-3.559 10.163,-4.954 2.842,-1.226 5.702,-2.315 8.515,-3.244 -0.182,-1.936 -0.238,-3.912 -0.167,-5.889 0.087,-2.459 0.491,-4.744 1.203,-6.79 0.744,-2.14 1.93,-3.954 3.525,-5.394 1.66,-1.496 3.846,-2.351 6.501,-2.54 l 0.106,-0.004 c 0.061,0 0.352,0.014 0.877,0.045 0.499,0.029 0.997,0.073 1.499,0.132 0.734,0.087 1.229,0.237 1.611,0.492 0.522,0.35 0.795,0.941 0.713,1.545 -0.143,1.063 -1.18,1.409 -1.487,1.508 -0.466,0.187 -0.841,0.274 -1.18,0.274 h -0.56 c -0.941,0.086 -1.593,0.496 -2.11,1.326 -0.685,1.101 -1.209,2.39 -1.557,3.834 -0.364,1.505 -0.588,3.059 -0.665,4.621 -0.08,1.592 -0.095,2.85 -0.041,3.826 0,0.204 0.003,0.401 0.01,0.593 4.023,-1 8.058,-1.727 12.019,-2.168 4.517,-0.501 9.292,-0.755 14.193,-0.755 4.386,0 8.761,0.384 13.004,1.143 4.3,0.769 8.5,2.169 12.471,4.154 2.456,1.201 4.841,2.66 7.087,4.337 2.262,1.689 4.3,3.596 6.058,5.669 1.775,2.096 3.208,4.386 4.256,6.806 1.075,2.475 1.619,5.091 1.619,7.776 0,3.313 -0.832,6.318 -2.47,8.932"
             style="fill:#281a11;fill-opacity:1;fill-rule:nonzero;stroke:none"
             id="path859"
             inkscape:connector-curvature="0" /></g><g
           id="g861"
           transform="translate(1169.0092,829.575)"><path
             d="m 0,0 c 1.112,1.758 2.515,3.396 4.171,4.869 1.67,1.487 3.513,2.775 5.475,3.822 0.917,0.489 1.823,0.91 2.711,1.262 C 12.122,9.297 11.906,8.634 11.711,7.965 10.599,6.813 9.411,5.656 8.176,4.522 6.844,3.299 5.478,2.138 4.113,1.069 2.759,0.004 1.378,-0.971 0.01,-1.828 -0.425,-2.101 -0.856,-2.354 -1.283,-2.589 -0.966,-1.715 -0.537,-0.85 0,0 m 103.519,42.296 c 1.869,0 3.818,-0.122 5.794,-0.362 1.283,-0.157 2.566,-0.318 3.849,-0.485 -2.521,-4.25 -4.759,-8.64 -6.664,-13.08 -1.927,-4.485 -3.456,-8.854 -4.558,-13.015 -1.219,0.679 -2.387,1.475 -3.488,2.378 -1.578,1.293 -2.968,2.774 -4.13,4.402 -1.156,1.618 -2.082,3.405 -2.752,5.31 -0.659,1.879 -0.994,3.834 -0.994,5.811 0,2.006 0.388,3.594 1.151,4.717 0.808,1.186 1.796,2.073 3.019,2.708 1.277,0.663 2.689,1.098 4.193,1.297 1.621,0.211 3.162,0.319 4.58,0.319 m 25.56,-44.456 c -1.844,-1.422 -3.79,-2.622 -5.784,-3.568 -1.892,-0.895 -3.855,-1.349 -5.833,-1.349 -0.877,0 -1.677,0.114 -2.413,0.33 1.287,0.514 2.579,1.017 3.883,1.492 3.536,1.291 7.075,2.436 10.586,3.447 -0.148,-0.116 -0.291,-0.238 -0.439,-0.352 M 89.491,-78.789 c -3.35,0 -6.6,0.557 -9.66,1.655 -3.043,1.092 -5.757,2.672 -8.067,4.696 -2.301,2.017 -4.163,4.457 -5.535,7.251 -1.358,2.77 -2.046,5.899 -2.046,9.3 0,4.059 0.895,7.895 2.662,11.402 1.818,3.609 4.067,6.984 6.687,10.032 3.564,4.158 7.798,8.091 12.586,11.687 4.813,3.618 10.037,6.926 15.529,9.834 1.949,1.033 3.948,2.007 5.967,2.953 2.329,-1.219 4.97,-1.84 7.856,-1.84 1.006,0 2.028,0.075 3.041,0.222 1,0.148 1.962,0.372 2.86,0.666 2.256,0.584 4.442,1.466 6.498,2.624 2.029,1.146 3.981,2.46 5.801,3.911 0.302,0.241 0.582,0.509 0.878,0.758 0.061,-0.594 0.21,-1.129 0.483,-1.583 0.484,-0.775 1.301,-1.318 2.432,-1.612 0.918,-0.237 1.489,-0.339 1.912,-0.339 1.13,0 2.381,0.351 3.824,1.071 1.291,0.646 2.638,1.489 4.001,2.504 1.326,0.988 2.698,2.102 4.078,3.313 0.23,0.201 0.456,0.402 0.681,0.603 l -2.465,-7.243 c -1.453,-4.187 -2.931,-8.341 -4.39,-12.344 -1.478,-4.049 -3.076,-8.118 -4.747,-12.091 -1.668,-3.963 -3.521,-7.905 -5.508,-11.716 -1.986,-3.81 -4.181,-7.566 -6.516,-11.15 -2.93,-4.393 -6.188,-8.533 -9.687,-12.302 -3.425,-3.691 -7.561,-6.721 -12.301,-9.012 -2.674,-1.31 -5.392,-2.186 -8.078,-2.604 -2.762,-0.428 -5.715,-0.646 -8.776,-0.646 m 107.607,78.645 c -1.072,1.102 -2.369,2.061 -3.86,2.852 -1.43,0.759 -2.937,1.394 -4.478,1.889 -1.481,0.472 -2.695,0.85 -3.685,1.141 -2.996,0.791 -6.119,1.35 -9.283,1.661 -3.144,0.308 -6.349,0.464 -9.525,0.464 -0.719,0 -1.424,-0.014 -2.116,-0.041 l 2.095,6.083 -0.338,0.591 c -0.288,0.502 -0.874,1.173 -2.033,1.521 -1.407,0.421 -3.163,0.401 -4.695,0.018 -0.893,-0.223 -1.576,-0.539 -2.09,-0.966 l -0.336,-0.28 -0.134,-0.418 c -0.326,-1.024 -0.613,-1.872 -0.855,-2.526 -0.839,-0.831 -1.732,-1.67 -2.656,-2.494 l -2.683,-2.39 c -1.106,-0.142 -2.19,-0.274 -3.254,-0.394 -0.291,-0.033 -0.584,-0.069 -0.879,-0.107 0.284,0.531 0.573,1.058 0.864,1.577 0.773,1.378 1.49,2.648 2.153,3.807 0.68,1.192 1.247,2.281 1.68,3.236 0.51,1.12 0.758,2.07 0.758,2.903 0.001,3.244 -5.109,3.239 -7.155,3.241 -2.147,-0.134 -5.391,-0.337 -5.391,-2.577 0,-0.577 0.234,-1.279 1.169,-1.771 -0.102,-0.5 -0.249,-1.065 -0.439,-1.693 -0.372,-1.22 -0.832,-2.521 -1.369,-3.863 -0.551,-1.377 -1.103,-2.726 -1.652,-4.048 -0.425,-1.019 -0.802,-1.942 -1.129,-2.767 -8.452,-1.858 -16.769,-4.484 -24.878,-7.818 -1.038,1.879 -1.57,4.477 -1.57,7.767 0,0.682 0.026,1.369 0.079,2.044 0.022,0.287 0.048,0.581 0.08,0.88 0.483,0.034 1.016,0.102 1.592,0.206 0.849,0.15 1.671,0.368 2.444,0.646 0.853,0.307 1.589,0.713 2.189,1.208 0.819,0.674 1.252,1.562 1.252,2.569 0,0.767 -0.584,1.583 -1.666,1.583 -0.513,0 -1.001,-0.145 -1.397,-0.407 -0.688,-0.446 -1.587,-0.672 -2.67,-0.672 -0.318,0 -0.634,0.01 -0.947,0.032 0.905,4.126 2.367,8.525 4.356,13.101 2.133,4.908 4.726,9.77 7.713,14.465 4.228,-0.548 8.46,-0.97 12.596,-1.254 5.425,-0.374 10.992,-0.579 16.495,-0.417 0.983,0.026 1.965,0.041 2.947,0.041 h 0.237 l 0.225,0.073 c 0.337,0.108 0.713,0.328 1.295,0.755 0.447,0.327 0.899,0.688 1.341,1.073 0.481,0.415 0.921,0.873 1.31,1.358 0.556,0.697 0.827,1.342 0.827,1.975 0,0.379 -0.129,1.324 -1.327,1.923 l -0.348,0.174 -0.389,-0.017 c -7.385,-0.322 -14.87,-0.367 -22.296,0.081 -2.791,0.168 -5.619,0.402 -8.438,0.701 2.219,2.968 4.564,5.771 6.993,8.354 2.951,3.139 6.05,5.817 9.211,7.961 l 0.658,0.446 v 0.581 c 0.055,0.177 0.083,0.36 0.083,0.546 0,0.998 -0.696,2.041 -2.256,2.121 -0.586,0.029 -1.026,0.034 -1.398,0.041 -1.124,-0.06 -2.251,-0.21 -3.351,-0.447 -1.155,-0.25 -2.276,-0.66 -3.331,-1.22 l -0.161,-0.099 c -3.069,-2.16 -6.03,-4.818 -8.802,-7.9 -2.558,-2.847 -5.024,-5.984 -7.336,-9.337 -1.748,0.18 -3.486,0.331 -5.18,0.451 -2.009,0.14 -4.013,0.211 -5.956,0.211 -3.056,0 -6.072,-0.425 -8.967,-1.263 -3.02,-0.875 -5.821,-2.709 -8.342,-5.468 -1.377,-1.558 -2.47,-3.305 -3.251,-5.194 -0.791,-1.919 -1.192,-3.968 -1.192,-6.091 0,-2.58 0.517,-5.059 1.539,-7.372 0.996,-2.253 2.317,-4.347 3.928,-6.222 1.61,-1.874 3.491,-3.518 5.588,-4.885 1.737,-1.135 3.535,-2.067 5.359,-2.783 -0.079,-0.967 -0.117,-1.976 -0.132,-3.002 -1.193,-1.075 -2.42,-2.191 -3.68,-3.352 -2.049,-1.888 -4.17,-3.64 -6.303,-5.206 -2.098,-1.539 -4.288,-2.842 -6.509,-3.874 -2.114,-0.981 -4.248,-1.479 -6.34,-1.479 -1.217,0 -1.596,0.446 -1.722,0.594 -0.179,0.21 -0.596,0.921 -0.596,2.969 0,1.54 0.197,3.203 0.587,4.943 0.393,1.756 0.952,3.5 1.661,5.182 0.707,1.676 1.556,3.27 2.524,4.735 0.949,1.435 1.97,2.652 3.088,3.668 0.347,0.346 0.523,0.815 0.523,1.392 0,0.401 -0.139,1.388 -1.422,1.924 -0.445,0.185 -0.959,0.324 -1.574,0.427 -0.545,0.091 -1.117,0.152 -1.705,0.184 -0.558,0.03 -1.011,0.044 -1.364,0.044 -2.166,0 -3.815,-0.533 -4.901,-1.583 C 71.889,15.688 71.08,14.581 70.406,13.295 69.952,12.443 69.557,11.664 69.216,10.954 68.917,10.331 68.583,9.728 68.224,9.161 67.885,8.627 67.475,8.095 67.008,7.577 66.514,7.032 65.917,6.436 65.26,5.828 64.338,5.016 63.385,4.226 62.425,3.479 61.418,2.695 60.438,1.913 59.52,1.155 59.025,0.77 58.436,0.317 57.749,-0.203 57.087,-0.707 56.404,-1.189 55.72,-1.637 c -0.657,-0.428 -1.297,-0.801 -1.903,-1.105 0.05,1.324 0.287,2.652 0.707,3.956 0.498,1.547 1.137,3.075 1.897,4.544 0.763,1.474 1.637,2.927 2.599,4.316 0.979,1.415 1.973,2.796 2.954,4.105 l 0.659,0.88 -0.641,0.893 c -0.495,0.691 -1.294,1.168 -2.375,1.418 -1.731,0.4 -3.819,0.36 -5.677,0.013 -1.113,-0.209 -1.932,-0.509 -2.504,-0.918 l -0.303,-0.217 -1.972,-3.945 c -0.432,-0.8 -0.736,-1.475 -0.932,-2.062 -0.156,-0.47 -0.367,-1.017 -0.626,-1.643 l -0.038,-0.1 C 47.403,8.012 47.187,7.404 46.918,6.678 46.752,6.232 46.592,5.757 46.434,5.268 45.841,4.633 45.264,4.006 44.661,3.367 43.309,1.934 41.884,0.536 40.427,-0.785 c -1.434,-1.303 -2.976,-2.533 -4.582,-3.658 -1.555,-1.088 -3.21,-1.982 -4.926,-2.659 -1.053,-0.419 -2.031,-0.769 -2.906,-1.035 -1.426,-0.431 -2.616,-0.585 -3.991,0.17 -0.689,0.378 -1.327,0.914 -1.893,1.596 -0.583,0.698 -1.071,1.559 -1.452,2.563 -0.375,0.981 -0.566,2.085 -0.566,3.283 0,1.189 0.163,2.38 0.485,3.542 0.341,1.229 0.777,2.462 1.3,3.662 0.517,1.192 1.124,2.338 1.799,3.405 0.7,1.102 1.409,2.151 2.108,3.119 l 0.592,0.819 -0.538,0.857 c -0.494,0.789 -1.311,1.32 -2.427,1.578 -1.692,0.39 -3.879,0.385 -5.775,-0.04 -0.759,-0.173 -1.385,-0.377 -1.898,-0.618 -0.638,0.078 -1.261,0.131 -1.859,0.156 -0.723,0.028 -1.199,0.042 -1.429,0.042 L 12.251,15.981 C 4.333,14.819 -2.078,10.885 -6.825,4.308 -8.861,2.89 -10.92,1.681 -12.987,0.707 c -3.669,-1.729 -7.441,-2.901 -11.249,-3.492 -1.209,-0.22 -2.487,-0.441 -3.832,-0.659 -1.973,-0.322 -3.895,-0.475 -5.848,-0.127 -0.617,0.108 -1.184,0.296 -1.684,0.557 -0.438,0.229 -0.789,0.523 -1.071,0.899 -0.214,0.285 -0.322,0.708 -0.322,1.258 0,0.369 0.103,1.034 0.557,2.171 1.197,0.501 2.548,1.076 4.053,1.72 1.799,0.771 3.507,1.64 5.078,2.582 1.613,0.968 3.013,2.012 4.161,3.104 1.385,1.312 2.087,2.782 2.087,4.366 0,0.895 -0.324,1.692 -0.937,2.306 -0.467,0.466 -1.035,0.841 -1.697,1.117 -0.553,0.225 -1.141,0.405 -1.753,0.535 -1.66,0.35 -3.02,0.219 -4.31,-0.092 -0.747,-0.18 -1.517,-0.421 -2.288,-0.717 -2.483,-0.889 -4.761,-2.223 -6.771,-3.966 -1.99,-1.728 -3.711,-3.79 -5.116,-6.13 -0.535,-0.892 -1.057,-1.95 -1.552,-3.143 -0.544,-1.311 -0.82,-2.636 -0.82,-3.936 0,-1.661 0.513,-3.052 1.523,-4.135 0.898,-0.967 2.051,-1.723 3.427,-2.247 1.257,-0.48 2.636,-0.828 4.099,-1.038 1.423,-0.203 2.792,-0.306 4.071,-0.306 1.705,0 3.413,0.102 5.077,0.302 1.639,0.198 3.234,0.44 4.723,0.716 4.855,0.837 9.347,2.238 13.364,4.154 0.037,-1.343 0.548,-2.522 1.51,-3.406 0.989,-0.91 2.476,-1.351 4.542,-1.351 l 0.727,10e-4 c 1.504,0.063 3.035,0.425 4.553,1.075 1.435,0.615 2.855,1.384 4.219,2.284 1.361,0.898 2.702,1.934 3.988,3.078 0.335,0.297 0.668,0.596 1,0.896 0.104,-1.3 0.365,-2.557 0.779,-3.752 0.568,-1.642 1.466,-3.1 2.667,-4.332 1.201,-1.233 2.758,-2.207 4.625,-2.893 1.818,-0.667 3.974,-1.004 6.409,-1.004 3.159,0 6.147,0.536 8.884,1.594 2.685,1.04 5.233,2.446 7.571,4.178 1.365,1.012 2.68,2.134 3.945,3.333 0.256,-1.166 0.717,-2.145 1.429,-2.88 1.137,-1.174 3.036,-1.744 5.809,-1.744 1.124,0 2.412,0.362 3.938,1.108 1.371,0.672 2.835,1.549 4.349,2.607 1.507,1.052 3.039,2.24 4.553,3.532 0.291,0.246 0.577,0.493 0.862,0.74 l -0.105,-0.489 c -0.215,-1.007 -0.323,-2.048 -0.323,-3.093 0,-1.596 0.336,-2.971 0.999,-4.087 0.66,-1.11 1.559,-1.99 2.67,-2.615 1.012,-0.57 2.149,-0.988 3.382,-1.241 1.176,-0.24 2.38,-0.362 3.579,-0.362 3.212,0 6.282,0.549 9.126,1.633 2.786,1.065 5.462,2.475 7.952,4.193 2.469,1.702 4.839,3.655 7.043,5.804 0.125,0.122 0.246,0.246 0.371,0.369 0.211,-1.09 0.499,-2.14 0.867,-3.134 0.415,-1.125 0.961,-2.172 1.618,-3.132 -2.812,-1.332 -5.6,-2.733 -8.349,-4.241 -4.35,-2.342 -8.797,-5.095 -13.22,-8.184 -4.458,-3.111 -8.567,-6.61 -12.217,-10.398 -3.678,-3.822 -6.722,-8.031 -9.047,-12.508 -2.371,-4.567 -3.573,-9.464 -3.573,-14.553 0,-4.217 0.942,-8.088 2.797,-11.506 1.834,-3.377 4.302,-6.272 7.334,-8.607 3,-2.307 6.477,-4.105 10.333,-5.344 3.841,-1.231 7.82,-1.856 11.829,-1.856 3.854,0 7.638,0.418 11.249,1.242 3.601,0.822 7.118,2.014 10.457,3.542 5.347,2.446 10.024,5.709 13.899,9.698 3.802,3.914 7.35,8.314 10.545,13.075 3.062,4.568 5.927,9.45 8.514,14.511 2.578,5.049 5.023,10.259 7.264,15.488 2.241,5.23 4.345,10.504 6.253,15.676 1.789,4.847 3.478,9.542 5.03,13.973 0.603,0.029 1.21,0.053 1.821,0.071 0.954,0.026 1.923,0.04 2.906,0.04 4.259,0 8.635,-0.41 13.007,-1.22 4.29,-0.794 8.317,-2.271 11.917,-4.354 0.364,-0.232 0.612,-0.484 0.737,-0.747 0.214,-0.452 0.381,-0.882 0.496,-1.271 0.159,-0.547 0.346,-1.038 0.555,-1.456 0.573,-1.146 2.002,-1.631 3.517,-1.125 0.863,0.288 1.4,1.008 1.4,1.879 0,1.78 -0.631,3.332 -1.877,4.615"
             style="fill:#281a11;fill-opacity:1;fill-rule:nonzero;stroke:none"
             id="path863"
             inkscape:connector-curvature="0" /></g></g></g></g></svg>