<?xml version="1.0" encoding="UTF-8" standalone="no"?>
<!-- Generator: Adobe Illustrator 22.1.0, SVG Export Plug-In . SVG Version: 6.00 Build 0)  -->

<svg
   xmlns:dc="http://purl.org/dc/elements/1.1/"
   xmlns:cc="http://creativecommons.org/ns#"
   xmlns:rdf="http://www.w3.org/1999/02/22-rdf-syntax-ns#"
   xmlns:svg="http://www.w3.org/2000/svg"
   xmlns="http://www.w3.org/2000/svg"
   xmlns:sodipodi="http://sodipodi.sourceforge.net/DTD/sodipodi-0.dtd"
   xmlns:inkscape="http://www.inkscape.org/namespaces/inkscape"
   version="1.1"
   id="Layer_1"
   x="0px"
   y="0px"
   width="1996"
   height="1069"
   viewBox="0 0 1996 1069"
   xml:space="preserve"
   sodipodi:docname="logo.svg"
   inkscape:export-filename="/home/pawel/projects/node/strapi/roslyn_beauty_salon/graphics/logo-mine.png"
   inkscape:export-xdpi="96"
   inkscape:export-ydpi="96"
   inkscape:version="0.92.3 (2405546, 2018-03-11)"><metadata
   id="metadata35"><rdf:RDF><cc:Work
       rdf:about=""><dc:format>image/svg+xml</dc:format><dc:type
         rdf:resource="http://purl.org/dc/dcmitype/StillImage" /><dc:title></dc:title></cc:Work></rdf:RDF></metadata><defs
   id="defs33">
	
	
</defs><sodipodi:namedview
   pagecolor="#ffffff"
   bordercolor="#666666"
   borderopacity="1"
   objecttolerance="10"
   gridtolerance="10"
   guidetolerance="10"
   inkscape:pageopacity="0"
   inkscape:pageshadow="2"
   inkscape:window-width="1918"
   inkscape:window-height="1059"
   id="namedview31"
   showgrid="false"
   inkscape:zoom="0.22461046"
   inkscape:cx="616.50402"
   inkscape:cy="1000"
   inkscape:window-x="1920"
   inkscape:window-y="19"
   inkscape:window-maximized="0"
   inkscape:current-layer="Layer_1" />
<style
   type="text/css"
   id="style2">
	.st0{fill:#281A11;}
</style>
<g
   id="g10"
   transform="matrix(1.0724404,0,0,0.72943779,-129.89504,-595.02896)">
		
	</g><g
   id="g917"
   transform="matrix(1.7847881,0,0,1.8597515,-787.01161,-1453.3817)"><g
     id="g8"
     transform="matrix(1.0724404,0,0,0.72943779,-129.89504,335.97104)">
			<g
   id="g6">
				<path
   class="st0"
   d="m 980.1,1060.8 c -43,-22.4 -71.7,-57.3 -86,-104.6 -1.1,-3.6 -1.9,-7.3 -2.4,-11 -0.9,-6.6 1.6,-10.1 8.1,-11.3 10.2,-1.9 20.5,-3.7 30.7,-5.6 7.7,-1.4 15.2,-3.4 22.1,-7.3 1.6,-0.9 3.2,-1.9 4.7,-3.1 6.3,-4.9 7.7,-11 4.4,-18.3 -2.3,-4.9 -4.6,-9.8 -6.7,-14.8 -1.6,-3.6 -1.1,-7.1 2.4,-9.4 4.9,-3.1 4,-10.9 -2.8,-13.6 -4.1,-1.6 -4.3,-2.3 -1.6,-5.9 0.9,-1.2 1.9,-2.5 2.5,-3.9 1.5,-3.9 0.8,-5.6 -2.9,-7.5 -9,-4.9 -9.6,-11 -1.3,-17.1 5.2,-3.9 8.4,-8.5 8.4,-15.1 0,-2.6 -0.9,-4.4 -3.1,-5.6 -2.1,-1.1 -4.3,-2.2 -6.4,-3.2 -11.3,-5.1 -20.9,-12.5 -29.1,-21.6 -5.3,-5.8 -7.5,-12.8 -6.8,-20.7 0.2,-1.9 -0.4,-4.2 -1.3,-5.9 -5.5,-10.9 -11.3,-21.8 -16.8,-32.7 -5,-9.8 -9.5,-20 -17.7,-27.7 -2.4,-2.3 -6.1,-3.6 -7.6,-6.3 -1.4,-2.5 -0.4,-6.3 -0.9,-9.4 -1.8,-9.6 -6.9,-17.1 -15.5,-22 -8.8,-5 -18,-7.6 -27.3,-6.9 48.5,48 55.3,140.8 -0.7,249.7 -30.9,60 6.4,122.7 46.1,166.9 C 520.3,1035 652.7,468 973.1,649.5 c 323.4,183.2 350.5,-15.9 350.5,-15.9 61.2,102.9 -96.4,378.3 -343.5,427.2 z"
   id="path4"
   inkscape:connector-curvature="0"
   style="fill:#281a11" />
			</g>
		</g><g
     transform="matrix(1,0,0,0.8955361,0,116.5372)"
     id="g26">
		<path
   class="st0"
   d="m 703.1,1291.9 c -1,0 -2.1,0.4 -3.4,1.3 -1.5,1 -1.9,1.5 -2.3,1.9 l -0.1,0.2 c -1.6,3.3 -3.6,6 -5.9,8.2 -2.3,2.2 -4.9,4 -7.6,5.3 -2.8,1.3 -5.8,2.3 -9,2.9 -3.3,0.6 -6.6,0.9 -10,0.9 -6.2,0 -12.7,-0.8 -19.3,-2.3 -6.7,-1.6 -13.5,-3.8 -20.2,-6.7 -6.8,-2.9 -13.5,-6.4 -20.1,-10.4 -6.6,-4 -13,-8.5 -19.1,-13.3 -6.1,-4.8 -11.8,-10.1 -17.2,-15.6 -4.5,-4.7 -8.6,-9.5 -12.2,-14.4 6,-1.5 12.1,-3.2 18,-5.1 7.1,-2.2 14.1,-4.9 20.9,-8 6.8,-3.1 13.4,-6.7 19.7,-10.8 6.3,-4.1 12.2,-8.9 17.6,-14.3 2,-2 4,-4.3 5.9,-6.8 2,-2.5 3.8,-5 5.4,-7.7 1.6,-2.7 3,-5.5 4,-8.3 1.1,-2.9 1.6,-5.9 1.6,-8.7 0,-6.7 -1.5,-12.5 -4.4,-17.1 -2.9,-4.5 -6.6,-8.3 -11,-11.3 -4.4,-2.9 -9.3,-5.2 -14.8,-6.8 -5.3,-1.6 -10.6,-2.8 -15.9,-3.8 -2.8,-0.4 -5.6,-0.8 -8.4,-1.1 -1.4,-0.2 -2.9,-0.3 -4.3,-0.5 l 2.4,-3.2 c 0.7,-0.9 1.3,-1.9 2,-2.9 0.6,-1 1.2,-2.1 1.7,-3.2 0.6,-1.3 0.9,-2.6 0.9,-3.7 0,-1.7 -0.8,-2.7 -1.4,-3.3 -0.7,-0.6 -1.5,-1 -2.4,-1.3 -0.8,-0.3 -1.7,-0.4 -2.7,-0.5 -0.8,0 -1.5,-0.1 -2.1,-0.1 h -1.1 c -0.7,0 -1.4,0 -2.2,0.1 -0.8,0.1 -1.6,0.3 -2.3,0.5 -2.3,0.7 -2.4,2.4 -2.4,2.9 0,0.6 0.2,1.3 0.8,2 -0.8,2.2 -1.9,4.2 -3.1,6.1 -1.2,1.8 -2.4,3.7 -3.7,5.4 l -11.4,-0.3 c -14.7,-0.4 -29.1,0.5 -42.8,2.8 -13.7,2.3 -26.9,6.1 -39.1,11.2 -5,2.1 -9.9,4.6 -14.7,7.5 -4.9,2.9 -9.3,6.4 -13.1,10.4 -3.9,4 -7.1,8.6 -9.5,13.8 -2.4,5.2 -3.6,11.1 -3.6,17.7 0,5.5 1.1,10.3 3.2,14.2 2.1,3.9 4.8,7.1 8.2,9.6 3.3,2.5 7.1,4.3 11.3,5.5 8,2.2 16.5,2.2 24.6,0.5 4,-0.8 7.8,-2.1 11.3,-3.7 0.5,-0.2 2.1,-0.8 2.1,-2.5 0,-1 -0.6,-1.8 -1.3,-2.5 -0.9,-0.8 -1.9,-1.3 -3.1,-1.3 -0.7,0 -1.4,0 -2.1,0.1 -1,0.1 -1.6,0.2 -1.9,0.4 -2.5,1.1 -5.2,2.2 -7.9,3.2 -2.5,1 -5.1,1.5 -7.7,1.5 -4.4,0 -8.1,-0.7 -11.1,-2.1 -3,-1.4 -5.5,-3.3 -7.3,-5.6 -1.9,-2.4 -3.3,-5.1 -4.3,-8.1 -0.9,-3.1 -1.4,-6.3 -1.4,-9.6 0,-5.4 1.1,-10.4 3.1,-14.9 2.1,-4.5 4.9,-8.6 8.3,-12.1 3.5,-3.6 7.5,-6.8 12,-9.5 4.5,-2.7 9.2,-5.1 13.9,-7 6,-2.4 12.1,-4.4 18.2,-5.9 6.1,-1.5 12.2,-2.7 18.3,-3.5 6.1,-0.8 12.2,-1.4 18.3,-1.7 6.1,-0.3 12.2,-0.4 18.1,-0.4 l 6,0.1 c -1.2,1.7 -2.4,3.4 -3.6,5.1 -1.5,2.2 -3,4.4 -4.4,6.6 -4.7,6.8 -9.4,13.7 -14.2,20.6 -4.7,6.9 -9.5,13.9 -14,20.9 -4.5,7 -9,14.1 -13.4,21.3 -4.3,7.2 -8.4,14.5 -12.3,21.9 -1.5,2.9 -3.1,6.1 -4.8,9.7 -1.7,3.6 -3.2,7.2 -4.5,10.7 -1.4,3.6 -2.5,7.1 -3.4,10.4 -0.9,3.5 -1.4,6.5 -1.4,9.2 0,1 0.1,2.1 0.2,3.2 0.2,1.3 0.5,2.5 1.1,3.6 0.6,1.2 1.5,2.1 2.6,2.9 1.2,0.8 2.7,1.2 4.4,1.2 0.9,0 1.6,-0.1 2.3,-0.3 1.7,-0.5 2.4,-1.7 2.4,-2.8 0,-0.3 0,-0.5 -0.1,-0.8 v -0.4 l -0.7,-0.7 c -1.1,-1.1 -1.7,-3 -1.7,-5.5 0,-1.9 0.3,-3.9 0.9,-6 0.6,-2.2 1.3,-4.4 2.2,-6.5 0.9,-2.1 1.7,-4.1 2.6,-5.9 0.9,-1.8 1.6,-3.3 2.1,-4.3 4.2,-8.8 8.8,-17.5 13.7,-25.9 4.9,-8.4 10.1,-16.8 15.5,-25.1 5.4,-8.2 11,-16.4 16.7,-24.4 5.7,-7.9 11.5,-16 17.3,-23.9 1.6,-2.2 2.9,-4 4,-5.5 1,-1.5 2,-2.7 2.8,-3.8 0.8,-1.1 1.5,-2.1 2.2,-2.9 0.4,-0.6 0.9,-1.2 1.4,-1.8 1.7,0.1 3.3,0.3 4.9,0.5 1.9,0.2 4,0.5 6.1,0.8 4.6,0.7 9.3,1.9 13.9,3.3 4.6,1.4 8.8,3.4 12.5,6 3.6,2.5 6.6,5.5 8.9,9.1 2.2,3.5 3.4,7.8 3.4,12.8 0,4.3 -1,8.4 -3.1,12.3 -2.1,4 -4.6,7.8 -7.4,11.2 -4.5,5.5 -9.6,10.4 -15.2,14.6 -5.7,4.3 -11.8,8.1 -18.2,11.5 -6.4,3.3 -13.1,6.3 -19.9,8.7 -6.3,2.3 -12.7,4.3 -19,6 -0.7,-1.2 -1.5,-2.3 -2.2,-3.5 -0.9,-1.6 -1.9,-3.2 -2.8,-4.8 l -0.3,-0.6 -0.6,-0.3 c -1.1,-0.5 -2.8,-0.5 -5,0.4 -0.9,0.4 -1.9,0.9 -2.7,1.5 -0.9,0.6 -1.7,1.2 -2.4,1.8 -0.9,0.8 -1.5,1.5 -1.8,2.3 l -0.4,1 0.6,1 c 3.9,6.7 8.8,13.4 14.5,20 5.7,6.5 12,12.7 18.8,18.5 6.8,5.8 14.1,11.1 21.7,16 7.6,4.9 15.5,9.1 23.4,12.7 7.9,3.6 15.9,6.4 23.8,8.4 8,2 15.7,3 23,3 4,0 8.4,-0.5 12.9,-1.6 4.5,-1 9,-2.6 13.2,-4.7 4.3,-2.1 8.2,-4.8 11.6,-8 3.5,-3.3 6.3,-7.1 8.3,-11.4 l 0.2,-0.5 v -0.5 c -0.9,-1.5 -2,-2.6 -3.5,-2.6 z"
   id="path12"
   inkscape:connector-curvature="0"
   style="fill:#281a11" />
		<path
   class="st0"
   d="m 692.7,1216.9 c 0.7,0.8 2.1,1.8 4.5,1.8 1,0 2.1,-0.3 3.3,-0.9 1,-0.5 1.9,-1.2 2.8,-2 0.8,-0.8 1.5,-1.7 2,-2.6 0.7,-1.1 1,-2.3 1,-3.6 -0.2,-4 -2.7,-6.3 -6.8,-6.3 -2.3,0 -4.4,0.9 -6.1,2.7 -1.7,1.8 -2.5,3.8 -2.5,6.1 v 0.3 c 0.3,2 0.9,3.5 1.8,4.5 z"
   id="path14"
   inkscape:connector-curvature="0"
   style="fill:#281a11" />
		<path
   class="st0"
   d="m 765.7,1253.8 c -3.7,-1.4 -9,-2.5 -16,-3.2 l -2.4,-0.5 c -0.6,-0.1 -1.2,-0.3 -1.7,-0.6 -0.3,-0.2 -0.6,-0.4 -0.8,-0.7 -0.2,-0.2 -0.2,-0.7 -0.2,-1.2 0,-1.3 0.4,-2.3 1.4,-3.1 1.3,-1.1 2.7,-2 4.3,-2.6 1.6,-0.7 3.1,-1.2 4.4,-1.4 1.9,-0.4 4,-0.8 4,-2.9 0,-2.3 -2.6,-2.7 -3.8,-2.9 -1.4,-0.2 -2.5,-0.3 -3.4,-0.3 -2.2,0 -4.6,0.3 -7.2,0.9 -2.6,0.6 -5,1.5 -7.1,2.7 -2.2,1.2 -4.2,2.6 -5.7,4.3 -1.7,1.9 -2.6,4 -2.6,6.4 0,0.4 0,0.8 0.1,1.2 -3,2.4 -6.1,4.7 -9.4,6.7 -4.4,2.8 -9.3,5 -14.3,6.6 -1.7,0.5 -3.4,1 -5.2,1.4 -2.7,0.7 -5.6,0.9 -7.9,0.3 -0.8,-0.2 -1.5,-0.6 -2.1,-1.1 -0.6,-0.5 -1,-1.1 -1.4,-2 -0.4,-0.9 -0.6,-2.2 -0.6,-3.7 0,-1.6 0.3,-3.3 0.9,-5 0.6,-1.9 1.4,-3.7 2.4,-5.5 1,-1.9 2,-3.7 3.2,-5.4 1.2,-1.8 2.3,-3.5 3.4,-5.1 l 0.8,-1.2 -0.8,-1.3 c -0.8,-1.2 -2,-2 -3.7,-2.4 -2.6,-0.6 -5.9,-0.6 -8.8,0.1 v 0 c -1.6,0.4 -2.8,0.8 -3.7,1.4 l -0.5,0.3 -0.3,0.5 c -0.8,1.4 -1.6,3 -2.4,4.8 -0.8,1.8 -1.6,3.7 -2.3,5.7 -0.7,1.9 -1.3,3.9 -1.7,5.9 -1.8,1 -3.6,1.9 -5.4,2.5 -3.8,1.3 -7.8,2 -12,2 -1.2,0 -2.4,-0.1 -3.6,-0.4 -0.6,-0.1 -1.3,-0.3 -1.9,-0.5 0.4,-1.7 0.7,-3.5 0.7,-5.2 0,-3.7 -1.2,-6.9 -3.7,-9.4 -2.5,-2.6 -5.5,-3.9 -9,-3.9 -1.3,0 -2.4,0.2 -3.3,0.7 -0.3,0.1 -0.6,0.3 -1,0.5 -0.7,-0.3 -1.6,-0.4 -2.5,-0.4 -2.8,0 -5.6,0.6 -8.3,1.9 -2.6,1.2 -4.9,2.8 -6.8,4.7 -1.9,1.9 -3.5,4.2 -4.7,6.6 -1.2,2.5 -1.8,5.1 -1.8,7.7 0,2.7 0.6,5 1.7,6.9 1.1,1.9 2.5,3.4 4.3,4.5 1.7,1.1 3.6,1.9 5.6,2.4 2,0.5 4,0.8 6.1,0.8 4.4,0 8.4,-1.1 12,-3.4 3.2,-1.9 5.8,-4.6 7.8,-7.8 1,0.1 2,0.3 3,0.3 1.6,0.1 3.4,0.2 5.4,0.2 5,0 10,-0.8 14.9,-2.3 0.6,-0.2 1.2,-0.4 1.8,-0.6 0.2,2.6 0.9,4.9 2.1,6.7 1.4,2 3.2,3.6 5.3,4.8 2.1,1.1 4.3,1.9 6.8,2.3 2.3,0.4 4.5,0.6 6.6,0.6 4,0 8.1,-0.7 12.3,-2 3,-1 6,-2.2 8.9,-3.6 1,1 2.3,1.8 3.7,2.5 1.8,0.9 3.8,1.6 5.9,2.1 2.1,0.5 4.3,0.8 6.7,1.1 2.3,0.2 4.7,0.3 7,0.3 3.6,0 7.1,-0.2 10.4,-0.6 3.3,-0.4 6.1,-0.9 8.1,-1.5 1.2,-0.3 2.6,-0.7 4.2,-1.4 1.6,-0.6 3.1,-1.3 4.5,-2.1 1.6,-0.8 2.9,-1.8 4,-2.9 1.4,-1.4 2.2,-2.9 2.2,-4.5 -0.2,-4.1 -5.3,-6 -6.9,-6.7 z m -32,1.7 c 1,0.5 2.2,0.9 3.5,1.2 2,0.5 4.1,0.9 6.3,1.1 2.1,0.2 4.1,0.6 5.9,0.9 1.6,0.3 3,0.8 4,1.3 0.4,0.2 0.7,0.5 0.7,1.1 0,0 -0.1,0.3 -1,0.9 -1.1,0.8 -2.6,1.5 -4.3,2.1 -1.8,0.6 -3.8,1.2 -5.9,1.6 -2,0.4 -3.9,0.6 -5.5,0.6 -2.6,0 -4.8,-0.3 -6.7,-0.9 -1.8,-0.6 -3.3,-1.4 -4.6,-2.6 l -0.3,-0.2 c -0.3,-0.2 -0.7,-0.4 -1.1,-0.5 1.7,-1.1 3.3,-2.2 4.8,-3.4 1.6,-1 2.9,-2.1 4.2,-3.2 z m -101.5,8.7 c -1.1,0.4 -2.1,0.6 -2.9,0.6 -0.9,0 -1.3,-0.3 -1.6,-0.5 -0.5,-0.4 -1,-0.9 -1.3,-1.6 -0.4,-0.7 -0.6,-1.6 -0.8,-2.4 -0.2,-0.9 -0.3,-1.8 -0.3,-2.6 0,-2.3 0.7,-4.3 2,-6.2 0.7,-1 1.5,-1.8 2.3,-2.6 0.2,0.7 0.5,1.5 0.9,2.1 0.9,1.7 2,3.1 3.4,4.3 1.3,1.1 2.8,2.1 4.3,2.8 0.5,0.3 1.1,0.5 1.6,0.7 -0.3,0.3 -0.6,0.6 -0.9,0.9 -1.1,1 -2.2,1.9 -3.4,2.7 -1,0.8 -2.1,1.4 -3.3,1.8 z m 9.6,-18.6 c 0.1,-0.6 0.2,-1.2 0.4,-1.7 0,0 0,-0.1 0,-0.1 0.2,0.3 0.3,0.6 0.5,1 0.3,0.7 0.6,1.5 0.7,2.4 0.2,0.9 0.3,1.6 0.3,2.3 0,0.3 0,0.7 -0.1,1.5 -0.3,-0.3 -0.7,-0.6 -0.9,-1 -0.7,-0.8 -1,-1.9 -1,-3.2 0,-0.1 0,-0.4 0.1,-1.2 z"
   id="path16"
   inkscape:connector-curvature="0"
   style="fill:#281a11" />
		<path
   class="st0"
   d="m 800.8,1216.9 c 0.7,0.8 2.1,1.8 4.5,1.8 1,0 2.1,-0.3 3.3,-0.9 1,-0.5 1.9,-1.2 2.8,-2 0.8,-0.8 1.5,-1.7 2,-2.6 0.7,-1.1 1,-2.3 1,-3.6 -0.2,-4 -2.7,-6.3 -6.8,-6.3 -2.3,0 -4.4,0.9 -6.1,2.7 -1.7,1.8 -2.5,3.8 -2.5,6.1 v 0.3 c 0.3,2 0.9,3.5 1.8,4.5 z"
   id="path18"
   inkscape:connector-curvature="0"
   style="fill:#281a11" />
		<path
   class="st0"
   d="m 839.8,1267.7 c 1.7,0.3 3.7,0.2 5.5,-0.8 1,-0.6 2,-1.3 2.8,-2.1 0.7,-0.7 1.4,-1.5 2.1,-2.4 0.6,-0.7 1.1,-1.4 1.6,-2 2.4,-2.9 4.8,-5.9 7.2,-8.9 1.5,-1.9 3.2,-3.8 4.8,-5.7 l -0.9,5.6 c -0.3,2.2 -0.6,4.4 -0.8,6.6 -0.2,2.2 -0.3,4.3 -0.3,6.1 0,5.5 1.3,9.8 3.9,12.6 2.6,2.9 5.9,4.3 9.8,4.3 2.5,0 5.3,-0.6 8.2,-1.7 2.8,-1.1 5.6,-2.6 8.4,-4.4 2.7,-1.8 5.5,-3.8 8.3,-5.9 2.7,-2.2 5.3,-4.4 7.8,-6.6 2.4,-2.2 4.8,-4.4 6.8,-6.5 l 5.9,-5.9 v -0.9 c 0,-1.5 -1.1,-3.2 -3.4,-3.2 -0.6,0 -1.1,0.1 -1.6,0.2 -0.4,0.1 -0.7,0.3 -0.9,0.4 l -0.3,0.2 -0.2,0.2 c -1.5,1.4 -3.2,3 -5.1,4.7 -1.9,1.7 -3.9,3.5 -6,5.3 -2.1,1.8 -4.3,3.7 -6.6,5.5 -2.2,1.8 -4.5,3.4 -6.8,4.9 -2.1,1.3 -4.4,2.7 -6.9,4.2 -2.1,1.2 -4.2,1.9 -6,1.9 0,0 0,0 -0.1,0 -0.2,-0.3 -0.4,-0.8 -0.6,-1.4 -0.2,-0.8 -0.3,-1.8 -0.3,-2.8 0,-1.1 -0.1,-2.1 -0.1,-3.1 0,-3.6 0.4,-7 1.3,-10.3 0.9,-3.4 1.9,-6.9 2.9,-10.5 0.2,-0.9 0.6,-1.9 1.1,-3.2 0.6,-1.6 0.9,-3.1 0.9,-4.6 0,-1.6 -0.5,-3 -1.5,-3.9 -0.8,-0.8 -1.8,-1.4 -2.8,-1.7 -1,-0.3 -2.1,-0.5 -3.2,-0.5 H 871 l -0.2,0.2 c -2.5,0.3 -4.9,1.4 -7.2,3 -1.9,1.4 -3.7,3 -5.4,4.9 0.2,-0.4 0.4,-0.8 0.6,-1.2 l 0.5,-1.1 -0.6,-1 c -0.8,-1.2 -2,-2 -3.7,-2.4 -2.6,-0.6 -5.9,-0.6 -8.8,0.1 -1.6,0.4 -2.8,0.8 -3.7,1.4 l -0.8,0.5 -0.2,1 c -0.4,1.9 -1,3.7 -1.7,5.5 -0.8,1.9 -1.6,3.9 -2.5,5.8 -0.4,1 -0.8,1.9 -1.2,2.9 -2.6,2.1 -5.4,4 -8.2,5.8 -4.4,2.8 -9.3,5 -14.3,6.6 -1.7,0.5 -3.4,1 -5.2,1.4 -2.7,0.7 -5.6,0.9 -7.9,0.3 -0.8,-0.2 -1.5,-0.6 -2.1,-1.1 -0.6,-0.5 -1,-1.1 -1.4,-2 -0.4,-0.9 -0.6,-2.2 -0.6,-3.7 0,-1.6 0.3,-3.3 0.9,-5 0.6,-1.9 1.4,-3.7 2.4,-5.5 1,-1.9 2,-3.7 3.2,-5.4 1.2,-1.8 2.3,-3.5 3.4,-5.1 l 0.8,-1.2 -0.8,-1.3 c -0.8,-1.2 -2,-2 -3.7,-2.4 -2.6,-0.6 -5.9,-0.6 -8.8,0.1 v 0 c -1.6,0.4 -2.8,0.8 -3.7,1.4 l -0.5,0.3 -0.3,0.5 c -0.8,1.4 -1.6,3 -2.4,4.8 -0.8,1.8 -1.6,3.7 -2.3,5.7 -0.7,2 -1.3,4 -1.8,6.1 -0.5,2.2 -0.8,4.3 -0.8,6.3 0,3.2 0.7,5.9 2.2,8 1.4,2 3.2,3.6 5.3,4.8 2.1,1.1 4.3,1.9 6.8,2.3 2.3,0.4 4.5,0.6 6.6,0.6 4,0 8.1,-0.7 12.3,-2 4.1,-1.3 8.1,-3 11.9,-5.2 2.4,-1.3 4.7,-2.8 7,-4.3 0.3,2.7 1.8,4.6 4.2,5.6"
   id="path20"
   inkscape:connector-curvature="0"
   style="fill:#281a11" />
		<path
   class="st0"
   d="m 1182.8,1220.7 c -2.4,-3.8 -5.6,-7.3 -9.5,-10.2 -3.8,-2.9 -8.2,-5.3 -13.1,-7.3 -2.5,-1 -5,-1.9 -7.5,-2.8 3.1,-1.2 6.3,-2.5 9.4,-3.9 5.5,-2.5 10.6,-5.3 15.1,-8.3 4.6,-3.1 8.4,-6.5 11.4,-10.2 3.1,-3.9 4.7,-8.2 4.7,-12.6 0,-4.6 -1.4,-8.8 -4,-12.4 -2.5,-3.5 -5.9,-6.6 -9.9,-9.1 -3.9,-2.5 -8.3,-4.7 -13.2,-6.4 -4.8,-1.7 -9.5,-3 -14.2,-3.8 -2.4,-0.4 -4.7,-0.8 -7,-1.1 -1.5,-0.2 -3,-0.4 -4.6,-0.7 0.4,-2.3 0.5,-4.5 0.5,-6.5 -0.1,-3.2 -1.2,-5.9 -3.3,-8 l -0.3,-0.3 -0.3,-0.2 c -0.7,-0.4 -1.8,-0.7 -3.5,-0.9 -1.5,-0.2 -3,-0.4 -4.6,-0.4 -1.7,-0.1 -3.2,0.1 -4.5,0.4 -3.2,0.7 -3.5,3 -3.5,3.7 v 0.9 l 0.7,0.7 c 1.1,1.1 1.7,2.5 1.9,4.2 0.2,1.5 0.1,3.1 0,4.7 -3.6,-0.2 -7.3,-0.3 -10.8,-0.3 -16.4,0 -32.6,1.1 -48,3.2 -15.5,2.1 -30.8,6 -45.3,11.5 -5.3,2 -10.8,4.7 -16.4,7.8 -5.6,3.1 -10.8,6.8 -15.4,11 -4.7,4.2 -8.5,8.9 -11.5,14.1 -3,5.3 -4.6,11.2 -4.6,17.5 0,3.7 0.6,7.3 1.8,10.9 1.2,3.6 2.8,7 5,10.2 2.2,3.2 4.8,6.2 7.9,9 3.1,2.8 6.6,5.2 10.4,7.3 8.7,4.8 18.1,8.3 28.1,10.3 15.8,3.3 32.6,3.9 48.9,2 -1.4,3.6 -2.6,7.1 -3.6,10.6 -0.4,1.5 -0.9,3.3 -1.3,5.2 -0.3,1.2 -0.5,2.4 -0.8,3.7 -3.3,-1.1 -6.6,-2.4 -9.9,-3.8 -4.3,-1.8 -8.9,-3.8 -13.8,-6.1 l -0.5,-0.2 h -0.5 c -0.1,0 -0.2,0 -0.4,0 -0.8,-0.1 -2.1,-0.1 -3.3,0.1 -1.9,0.3 -2.6,1.7 -2.6,2.7 0,0.7 0.3,1.4 0.9,2 l 0.2,0.2 0.3,0.2 c 5.3,2.9 10.5,5.4 15.4,7.5 4.3,1.9 8.7,3.5 12.9,4.9 -0.3,2.9 -0.4,5.9 -0.3,8.9 0.1,3.7 0.7,7.2 1.8,10.3 1.1,3.3 2.9,6 5.4,8.2 2.5,2.3 5.8,3.6 9.9,3.9 h 0.2 c 0.1,0 0.5,0 1.3,-0.1 0.8,0 1.5,-0.1 2.3,-0.2 1.1,-0.1 1.9,-0.4 2.4,-0.7 0.8,-0.5 1.2,-1.4 1.1,-2.3 -0.2,-1.6 -1.8,-2.1 -2.3,-2.3 -0.7,-0.3 -1.3,-0.4 -1.8,-0.4 h -0.9 c -1.4,-0.1 -2.4,-0.8 -3.2,-2 -1,-1.7 -1.8,-3.6 -2.4,-5.8 -0.6,-2.3 -0.9,-4.6 -1,-7 -0.1,-2.4 -0.1,-4.3 -0.1,-5.8 0,-0.3 0,-0.6 0,-0.9 6.1,1.5 12.2,2.6 18.3,3.3 6.9,0.8 14.1,1.1 21.6,1.1 6.7,0 13.3,-0.6 19.8,-1.7 6.5,-1.2 12.9,-3.3 18.9,-6.3 3.7,-1.8 7.4,-4 10.8,-6.6 3.4,-2.6 6.5,-5.5 9.2,-8.6 2.7,-3.2 4.9,-6.7 6.5,-10.3 1.6,-3.8 2.5,-7.7 2.5,-11.8 0,-5.4 -1.3,-9.9 -3.8,-13.9 z m -77.5,50.6 c -3.7,-0.4 -7.4,-0.8 -11.1,-1.2 -2.9,-0.4 -5.7,-0.9 -8.3,-1.3 -1.9,-0.3 -3.8,-0.7 -5.6,-1.2 0.1,-0.3 0.1,-0.5 0.2,-0.8 0.2,-0.9 0.4,-1.8 0.8,-2.9 0.3,-1.2 0.7,-2.4 1.1,-3.6 0.4,-1.2 0.8,-2.4 1.3,-3.6 0.9,-2.7 1.9,-5.3 2.8,-8 0.8,-2.2 1.7,-4.5 2.6,-6.7 1.3,-0.3 2.5,-0.5 3.6,-0.8 1.5,-0.3 3.1,-0.7 4.8,-1.2 l 0.3,-0.1 0.3,-0.2 c 0.6,-0.3 1.7,-1 1.7,-2.5 0,-0.6 -0.2,-2.4 -2.9,-2.8 -1.2,-0.2 -2.5,-0.2 -3.7,-0.1 -0.2,0 -0.4,0 -0.4,0 l -0.6,0.1 c 1.4,-3.3 2.9,-6.6 4.4,-9.9 2,-4.2 4.1,-8.5 6.2,-12.7 6.1,-0.3 12.2,-1.2 18.3,-2.6 6.2,-1.5 12.2,-3.1 17.9,-4.8 3.9,1 7.8,2.4 11.6,4 4,1.6 7.5,3.7 10.6,6.1 3,2.3 5.5,5.1 7.5,8.2 1.8,3 2.8,6.5 2.8,10.4 0,5.5 -1.8,10.8 -5.4,15.6 -3.7,5 -8.6,9.5 -14.7,13.4 -5.5,3.6 -11.3,6.1 -17,7.4 -9.4,2.5 -19.5,2.8 -29.1,1.8 z m -120,-68.3 c -0.4,-1.3 -0.7,-2.6 -0.8,-4 -0.2,-1.4 -0.2,-2.7 -0.2,-4.1 0,-5.5 1.3,-10.5 4,-15.1 2.7,-4.7 6.3,-8.9 10.6,-12.7 4.3,-3.8 9.2,-7.1 14.5,-9.9 5.3,-2.8 10.5,-5.2 15.4,-7.1 7,-2.6 14,-4.7 21,-6.3 7,-1.6 14.1,-2.9 21,-3.8 7,-0.9 14,-1.5 21,-1.9 7,-0.3 14.1,-0.5 20.8,-0.5 2.9,0 5.9,0.1 9,0.2 -0.7,2.4 -1.6,4.6 -2.5,6.8 -1.4,3.1 -2.4,5.7 -3.2,7.6 -2.9,7.1 -6,14.2 -9.3,21.1 -3,6.5 -6.2,13 -9.3,19.5 -3.1,0 -6.1,0.1 -8.9,0.3 -2.8,0.2 -5.4,0.6 -7.6,1.1 -2.3,0.6 -4.2,1.3 -5.6,2.3 -2.3,1.6 -2.8,3.6 -2.8,5 v 0.6 c 0.3,1.9 1.2,3.6 2.7,4.9 1.2,1.1 2.8,2.1 4.6,2.8 1.7,0.7 3.6,1.2 5.6,1.6 0.9,0.2 1.8,0.3 2.6,0.4 -2,4.3 -4.1,8.7 -6.2,13 -2.1,4.2 -4,8.6 -5.8,13 -13.6,1.8 -27.9,1.8 -42.4,-0.6 -7.6,-1.3 -14.8,-3.4 -21.3,-6.3 -6.5,-2.9 -12.2,-6.6 -17.1,-11.2 -4.6,-4.4 -7.9,-10.1 -9.8,-16.7 z m 135.1,-1.3 c -1.4,0.4 -2.8,0.8 -4.2,1.2 -3.2,0.9 -6.5,1.6 -9.7,2.1 l 2.3,-4.5 c 4.1,0.4 8,0.8 11.6,1.2 z m -26.5,-2 -2.8,5.7 c -0.6,-0.1 -1.2,-0.3 -1.9,-0.4 -1.2,-0.3 -2.2,-0.7 -3.2,-1.1 -0.9,-0.4 -1.6,-0.9 -2.1,-1.4 -0.3,-0.3 -0.4,-0.5 -0.4,-0.7 v -0.1 c 0,-0.3 0,-0.7 1.6,-1.1 2.2,-0.5 5.1,-0.8 8.6,-0.8 h 0.2 z m 82.7,-40.7 c 1.1,2.4 1.6,4.7 1.6,6.8 0,2.8 -0.8,5.3 -2.4,7.8 -1.7,2.6 -3.9,5 -6.6,7.2 -2.7,2.2 -5.8,4.3 -9.1,6.1 -3.3,1.8 -6.6,3.5 -9.7,4.8 -3.1,1.4 -6,2.5 -8.4,3.3 -2,0.7 -3.6,1.2 -4.6,1.6 -0.6,-0.1 -1.5,-0.3 -3,-0.6 -1.8,-0.3 -4.1,-0.6 -6.7,-1 -2.6,-0.3 -5.6,-0.7 -8.8,-1 -2.1,-0.2 -4.3,-0.4 -6.4,-0.6 3.1,-6 6.2,-11.9 9.2,-17.8 3.6,-6.9 7,-14.1 10.2,-21.4 0.8,-1.9 1.9,-4.3 3.3,-7.3 1.2,-2.5 2.2,-5.1 3.1,-7.8 6.1,0.9 12.1,2.3 17.8,4.2 6.1,2 11.4,5 15.6,8.9 2.2,2.2 3.8,4.4 4.9,6.8 z"
   id="path22"
   inkscape:connector-curvature="0"
   style="fill:#281a11" />
		<path
   class="st0"
   d="m 1556.3,1259.2 c -1.6,-1.7 -3.6,-3.1 -5.9,-4.3 -2.2,-1.2 -4.5,-2.1 -6.8,-2.9 -2.2,-0.7 -4.1,-1.3 -5.6,-1.7 -4.6,-1.2 -9.3,-2.1 -14.1,-2.5 -4.8,-0.5 -9.6,-0.7 -14.5,-0.7 -1.1,0 -2.2,0 -3.2,0.1 l 3.2,-9.2 -0.5,-0.9 c -0.4,-0.8 -1.3,-1.8 -3.1,-2.3 -2.1,-0.6 -4.8,-0.6 -7.1,0 -1.4,0.3 -2.4,0.8 -3.2,1.5 l -0.5,0.4 -0.2,0.6 c -0.5,1.6 -0.9,2.8 -1.3,3.8 -1.3,1.3 -2.6,2.5 -4,3.8 l -4.1,3.6 c -1.7,0.2 -3.3,0.4 -4.9,0.6 -0.4,0.1 -0.9,0.1 -1.3,0.2 0.4,-0.8 0.9,-1.6 1.3,-2.4 1.2,-2.1 2.3,-4 3.3,-5.8 1,-1.8 1.9,-3.5 2.6,-4.9 0.8,-1.7 1.2,-3.1 1.2,-4.4 0,-4.9 -7.8,-4.9 -10.9,-4.9 -3.3,0.2 -8.2,0.5 -8.2,3.9 0,0.9 0.4,1.9 1.8,2.7 -0.2,0.8 -0.4,1.6 -0.7,2.6 -0.6,1.9 -1.3,3.8 -2.1,5.9 -0.8,2.1 -1.7,4.1 -2.5,6.2 -0.6,1.5 -1.2,3 -1.7,4.2 -12.8,2.8 -25.5,6.8 -37.8,11.9 -1.6,-2.9 -2.4,-6.8 -2.4,-11.8 0,-1 0,-2.1 0.1,-3.1 0,-0.4 0.1,-0.9 0.1,-1.3 0.7,-0.1 1.5,-0.2 2.4,-0.3 1.3,-0.2 2.5,-0.6 3.7,-1 1.3,-0.5 2.4,-1.1 3.3,-1.8 1.2,-1 1.9,-2.4 1.9,-3.9 0,-1.2 -0.9,-2.4 -2.5,-2.4 -0.8,0 -1.5,0.2 -2.1,0.6 -1,0.7 -2.4,1 -4.1,1 -0.5,0 -1,0 -1.4,0 1.4,-6.3 3.6,-13 6.6,-19.9 3.2,-7.5 7.2,-14.8 11.7,-22 6.4,0.8 12.9,1.5 19.1,1.9 8.2,0.6 16.7,0.9 25.1,0.6 1.5,0 3,-0.1 4.5,-0.1 h 0.4 l 0.3,-0.1 c 0.5,-0.2 1.1,-0.5 2,-1.1 0.7,-0.5 1.4,-1 2,-1.6 0.7,-0.6 1.4,-1.3 2,-2.1 0.8,-1.1 1.3,-2 1.3,-3 0,-0.6 -0.2,-2 -2,-2.9 l -0.5,-0.3 h -0.6 c -11.2,0.5 -22.6,0.6 -33.9,-0.1 -4.2,-0.3 -8.5,-0.6 -12.8,-1.1 3.4,-4.5 6.9,-8.8 10.6,-12.7 4.5,-4.8 9.2,-8.8 14,-12.1 l 1,-0.7 v -0.9 c 0.1,-0.3 0.1,-0.5 0.1,-0.8 0,-1.5 -1.1,-3.1 -3.4,-3.2 -0.9,0 -1.6,-0.1 -2.1,-0.1 -1.7,0.1 -3.4,0.3 -5.1,0.7 -1.8,0.4 -3.5,1 -5.1,1.9 l -0.2,0.1 c -4.7,3.3 -9.2,7.3 -13.4,12 -3.9,4.3 -7.6,9.1 -11.1,14.2 -2.7,-0.3 -5.3,-0.5 -7.9,-0.7 -3.1,-0.2 -6.1,-0.3 -9,-0.3 -4.6,0 -9.2,0.6 -13.6,1.9 -4.6,1.3 -8.8,4.1 -12.7,8.3 -2.1,2.4 -3.8,5 -4.9,7.9 -1.2,2.9 -1.8,6 -1.8,9.3 0,3.9 0.8,7.7 2.3,11.2 1.5,3.4 3.5,6.6 6,9.5 2.4,2.8 5.3,5.3 8.5,7.4 2.6,1.7 5.4,3.1 8.1,4.2 -0.1,1.5 -0.2,3 -0.2,4.6 -1.8,1.6 -3.7,3.3 -5.6,5.1 -3.1,2.9 -6.3,5.5 -9.6,7.9 -3.2,2.3 -6.5,4.3 -9.9,5.9 -3.2,1.5 -6.5,2.2 -9.6,2.2 -1.8,0 -2.4,-0.7 -2.6,-0.9 -0.3,-0.3 -0.9,-1.4 -0.9,-4.5 0,-2.3 0.3,-4.9 0.9,-7.5 0.6,-2.7 1.4,-5.3 2.5,-7.9 1.1,-2.5 2.4,-5 3.8,-7.2 1.4,-2.2 3,-4 4.7,-5.6 0.5,-0.5 0.8,-1.2 0.8,-2.1 0,-0.6 -0.2,-2.1 -2.2,-2.9 -0.7,-0.3 -1.5,-0.5 -2.4,-0.6 -0.8,-0.1 -1.7,-0.2 -2.6,-0.3 -0.8,0 -1.5,-0.1 -2.1,-0.1 -3.3,0 -5.8,0.8 -7.4,2.4 -1.4,1.3 -2.6,3 -3.6,5 -0.7,1.3 -1.3,2.5 -1.8,3.6 -0.5,0.9 -1,1.9 -1.5,2.7 -0.5,0.8 -1.1,1.6 -1.8,2.4 -0.8,0.8 -1.7,1.7 -2.7,2.7 -1.4,1.2 -2.8,2.4 -4.3,3.6 -1.5,1.2 -3,2.4 -4.4,3.5 -0.8,0.6 -1.6,1.3 -2.7,2.1 -1,0.8 -2,1.5 -3.1,2.2 -1,0.7 -2,1.2 -2.9,1.7 0.1,-2 0.4,-4 1.1,-6 0.8,-2.4 1.7,-4.7 2.9,-6.9 1.2,-2.2 2.5,-4.4 3.9,-6.6 1.5,-2.2 3,-4.2 4.5,-6.2 l 1,-1.3 -1,-1.4 c -0.8,-1 -2,-1.8 -3.6,-2.2 -2.6,-0.6 -5.8,-0.5 -8.6,0 -1.7,0.3 -2.9,0.8 -3.8,1.4 l -0.5,0.3 -3,6 c -0.7,1.2 -1.1,2.2 -1.4,3.1 -0.2,0.7 -0.6,1.5 -1,2.5 l -0.1,0.2 c -0.2,0.7 -0.6,1.7 -1,2.8 -0.3,0.7 -0.5,1.4 -0.7,2.1 -0.9,1 -1.8,1.9 -2.7,2.9 -2.1,2.2 -4.2,4.3 -6.4,6.3 -2.2,2 -4.5,3.8 -7,5.6 -2.4,1.7 -4.9,3 -7.5,4 -1.6,0.6 -3.1,1.2 -4.4,1.6 -2.2,0.7 -4,0.9 -6.1,-0.3 -1,-0.6 -2,-1.4 -2.9,-2.4 -0.9,-1.1 -1.6,-2.4 -2.2,-3.9 -0.6,-1.5 -0.9,-3.2 -0.9,-5 0,-1.8 0.2,-3.6 0.7,-5.4 0.5,-1.9 1.2,-3.7 2,-5.6 0.8,-1.8 1.7,-3.6 2.7,-5.2 1.1,-1.7 2.1,-3.3 3.2,-4.7 l 0.9,-1.2 -0.8,-1.3 c -0.8,-1.2 -2,-2 -3.7,-2.4 -2.6,-0.6 -5.9,-0.6 -8.8,0.1 -1.2,0.3 -2.1,0.6 -2.9,0.9 -1,-0.1 -1.9,-0.2 -2.8,-0.2 -1.1,0 -1.8,-0.1 -2.2,-0.1 h -0.3 c -12,1.8 -21.8,7.7 -29,17.7 -3.1,2.2 -6.2,4 -9.4,5.5 -5.6,2.6 -11.3,4.4 -17.1,5.3 -1.8,0.3 -3.8,0.7 -5.8,1 -3,0.5 -5.9,0.7 -8.9,0.2 -0.9,-0.2 -1.8,-0.4 -2.6,-0.8 -0.7,-0.3 -1.2,-0.8 -1.6,-1.4 -0.3,-0.4 -0.5,-1.1 -0.5,-1.9 0,-0.6 0.2,-1.6 0.8,-3.3 1.8,-0.8 3.9,-1.6 6.2,-2.6 2.7,-1.2 5.3,-2.5 7.7,-3.9 2.4,-1.5 4.6,-3.1 6.3,-4.7 2.1,-2 3.2,-4.2 3.2,-6.6 0,-1.4 -0.5,-2.6 -1.4,-3.5 -0.7,-0.7 -1.6,-1.3 -2.6,-1.7 -0.8,-0.3 -1.7,-0.6 -2.7,-0.8 -2.5,-0.5 -4.6,-0.3 -6.5,0.1 -1.1,0.3 -2.3,0.6 -3.5,1.1 -3.8,1.4 -7.2,3.4 -10.3,6 -3,2.6 -5.6,5.8 -7.8,9.3 -0.8,1.4 -1.6,3 -2.4,4.8 -0.8,2 -1.2,4 -1.2,6 0,2.5 0.8,4.6 2.3,6.3 1.4,1.5 3.1,2.6 5.2,3.4 1.9,0.7 4,1.3 6.2,1.6 2.2,0.3 4.2,0.5 6.2,0.5 2.6,0 5.2,-0.2 7.7,-0.5 2.5,-0.3 4.9,-0.7 7.2,-1.1 7.4,-1.3 14.2,-3.4 20.3,-6.3 0.1,2 0.8,3.8 2.3,5.2 1.5,1.4 3.8,2.1 6.9,2.1 h 1.1 c 2.3,-0.1 4.6,-0.6 6.9,-1.6 2.2,-0.9 4.3,-2.1 6.4,-3.5 2.1,-1.4 4.1,-2.9 6.1,-4.7 0.5,-0.5 1,-0.9 1.5,-1.4 0.2,2 0.6,3.9 1.2,5.7 0.9,2.5 2.2,4.7 4.1,6.6 1.8,1.9 4.2,3.4 7,4.4 2.8,1 6,1.5 9.7,1.5 4.8,0 9.3,-0.8 13.5,-2.4 4.1,-1.6 8,-3.7 11.5,-6.3 2.1,-1.5 4.1,-3.2 6,-5.1 0.4,1.8 1.1,3.3 2.2,4.4 1.7,1.8 4.6,2.7 8.8,2.7 1.7,0 3.7,-0.6 6,-1.7 2.1,-1 4.3,-2.4 6.6,-4 2.3,-1.6 4.6,-3.4 6.9,-5.4 0.4,-0.4 0.9,-0.7 1.3,-1.1 l -0.2,0.7 c -0.3,1.5 -0.5,3.1 -0.5,4.7 0,2.4 0.5,4.5 1.5,6.2 1,1.7 2.4,3 4.1,4 1.5,0.9 3.3,1.5 5.1,1.9 1.8,0.4 3.6,0.6 5.4,0.6 4.9,0 9.5,-0.8 13.9,-2.5 4.2,-1.6 8.3,-3.8 12.1,-6.4 3.8,-2.6 7.4,-5.6 10.7,-8.8 0.2,-0.2 0.4,-0.4 0.6,-0.6 0.3,1.7 0.8,3.3 1.3,4.8 0.6,1.7 1.5,3.3 2.5,4.8 -4.3,2 -8.5,4.2 -12.7,6.4 -6.6,3.6 -13.4,7.7 -20.1,12.4 -6.8,4.7 -13,10 -18.6,15.8 -5.6,5.8 -10.2,12.2 -13.7,19 -3.6,6.9 -5.4,14.4 -5.4,22.1 0,6.4 1.4,12.3 4.2,17.5 2.8,5.1 6.5,9.5 11.1,13.1 4.6,3.5 9.8,6.2 15.7,8.1 5.8,1.9 11.9,2.8 18,2.8 5.9,0 11.6,-0.6 17.1,-1.9 5.5,-1.2 10.8,-3.1 15.9,-5.4 8.1,-3.7 15.2,-8.7 21.1,-14.7 5.8,-5.9 11.2,-12.6 16,-19.9 4.7,-6.9 9,-14.4 12.9,-22 3.9,-7.7 7.6,-15.6 11,-23.5 3.4,-7.9 6.6,-16 9.5,-23.8 2.7,-7.4 5.3,-14.5 7.6,-21.2 0.9,0 1.8,-0.1 2.8,-0.1 1.4,0 2.9,-0.1 4.4,-0.1 6.5,0 13.1,0.6 19.8,1.9 6.5,1.2 12.6,3.5 18.1,6.6 0.6,0.4 0.9,0.7 1.1,1.1 0.3,0.7 0.6,1.3 0.8,1.9 0.2,0.8 0.5,1.6 0.8,2.2 0.9,1.7 3,2.5 5.3,1.7 1.3,-0.4 2.1,-1.5 2.1,-2.9 0.4,-3.2 -0.5,-5.6 -2.4,-7.5 z m -163.5,119.5 c -5.1,0 -10,-0.8 -14.7,-2.5 -4.6,-1.7 -8.7,-4.1 -12.3,-7.1 -3.5,-3.1 -6.3,-6.8 -8.4,-11 -2.1,-4.2 -3.1,-9 -3.1,-14.1 0,-6.2 1.4,-12 4,-17.3 2.8,-5.5 6.2,-10.6 10.2,-15.2 5.4,-6.3 11.8,-12.3 19.1,-17.8 7.3,-5.5 15.3,-10.5 23.6,-14.9 3,-1.6 6,-3 9.1,-4.5 3.5,1.9 7.6,2.8 11.9,2.8 1.5,0 3.1,-0.1 4.6,-0.3 1.5,-0.2 3,-0.6 4.3,-1 3.4,-0.9 6.7,-2.2 9.9,-4 3.1,-1.7 6,-3.7 8.8,-5.9 0.5,-0.4 0.9,-0.8 1.3,-1.2 0.1,0.9 0.3,1.7 0.7,2.4 0.7,1.2 2,2 3.7,2.4 1.4,0.4 2.3,0.5 2.9,0.5 1.7,0 3.6,-0.5 5.8,-1.6 2,-1 4,-2.3 6.1,-3.8 2,-1.5 4.1,-3.2 6.2,-5 0.3,-0.3 0.7,-0.6 1,-0.9 l -3.7,11 c -2.2,6.4 -4.5,12.7 -6.7,18.8 -2.2,6.2 -4.7,12.3 -7.2,18.4 -2.5,6 -5.4,12 -8.4,17.8 -3,5.8 -6.4,11.5 -9.9,16.9 -4.5,6.7 -9.4,13 -14.7,18.7 -5.2,5.6 -11.5,10.2 -18.7,13.7 -4.1,2 -8.2,3.3 -12.3,4 -4,0.3 -8.5,0.7 -13.1,0.7 z m 60.1,-116.5 c -2.8,2.2 -5.8,4 -8.8,5.4 -2.9,1.4 -5.9,2.1 -8.9,2.1 -1.3,0 -2.5,-0.2 -3.7,-0.5 2,-0.8 3.9,-1.5 5.9,-2.3 5.4,-2 10.8,-3.7 16.1,-5.2 -0.1,0.2 -0.3,0.4 -0.6,0.5 z m -38.8,-67.5 c 2.8,0 5.8,0.2 8.8,0.6 1.9,0.2 3.9,0.5 5.8,0.7 -3.8,6.5 -7.2,13.1 -10.1,19.9 -2.9,6.8 -5.3,13.5 -6.9,19.8 -1.9,-1 -3.6,-2.2 -5.3,-3.6 -2.4,-2 -4.5,-4.2 -6.3,-6.7 -1.8,-2.5 -3.2,-5.2 -4.2,-8.1 -1,-2.9 -1.5,-5.8 -1.5,-8.8 0,-3 0.6,-5.5 1.7,-7.2 1.2,-1.8 2.7,-3.2 4.6,-4.1 1.9,-1 4.1,-1.7 6.4,-2 2.5,-0.4 4.8,-0.5 7,-0.5 z m -157.3,64.3 c 1.7,-2.7 3.8,-5.2 6.3,-7.4 2.5,-2.3 5.3,-4.2 8.3,-5.8 1.4,-0.7 2.8,-1.4 4.1,-1.9 -0.4,1 -0.7,2 -1,3 -1.7,1.7 -3.5,3.5 -5.4,5.2 -2,1.9 -4.1,3.6 -6.2,5.2 -2.1,1.6 -4.2,3.1 -6.2,4.4 -0.7,0.4 -1.3,0.8 -2,1.2 0.6,-1.3 1.3,-2.7 2.1,-3.9 z"
   id="path24"
   inkscape:connector-curvature="0"
   style="fill:#281a11" />
	</g></g>
</svg>